<svg width="36" height="36" viewBox="0 0 36 36" fill="none" xmlns="http://www.w3.org/2000/svg">
<path d="M31.2862 10.7021H23.9704C24.0525 10.6324 24.1357 10.5727 24.2167 10.4929C26.3632 8.34637 26.9145 5.53387 25.4734 4.09274C24.0289 2.64937 21.2197 3.20287 19.0721 5.3505C18.6688 5.7591 18.3105 6.20981 18.0034 6.69487C17.6941 6.20946 17.3336 5.75874 16.9279 5.3505C15.9694 4.39087 14.8286 3.70912 13.716 3.42674C12.4358 3.10162 11.2747 3.34574 10.5289 4.09274C9.08663 5.535 9.63787 8.34637 11.7855 10.494C11.8654 10.5739 11.9464 10.6324 12.0262 10.7032H4.71375C3.8205 10.7032 3.09375 11.43 3.09375 12.3244V14.5046C3.09375 15.3979 3.8205 16.1246 4.71375 16.1246H31.2862C32.1795 16.1246 32.9062 15.3979 32.9062 14.5046V12.3244C32.9062 11.43 32.1795 10.7021 31.2862 10.7021ZM20.5042 6.7815C21.1984 6.08737 22.0275 5.57999 22.7812 5.38987C22.9727 5.33959 23.1695 5.31276 23.3674 5.30999C23.6632 5.30999 23.8995 5.38199 24.0413 5.52374C24.2685 5.75099 24.3191 6.22237 24.1763 6.78375C23.9861 7.53637 23.4788 8.36662 22.7846 9.06075C21.321 10.5244 19.71 10.7809 19.2476 10.3185C18.7819 9.85387 19.0406 8.24512 20.5042 6.7815ZM11.9599 5.52374C12.1005 5.38199 12.3379 5.30999 12.6326 5.30999C12.8092 5.30999 13.0072 5.33587 13.2188 5.38987C13.9714 5.57999 14.8016 6.0885 15.4958 6.78262C16.1899 7.47675 16.6972 8.30587 16.8874 9.0585C17.0291 9.621 16.9796 10.0912 16.7524 10.3185C16.2866 10.7831 14.6779 10.5244 13.2143 9.06187C12.5224 8.36775 12.015 7.5375 11.8238 6.78487C11.682 6.22237 11.7326 5.75099 11.9599 5.52374ZM16.9875 17.8121H6.1605V31.0939C6.1605 31.9871 6.88725 32.7139 7.7805 32.7139H16.9875V17.8121ZM19.0125 17.8121V32.7139H28.2195C29.1127 32.7139 29.8395 31.9871 29.8395 31.0939V17.8121H19.0125Z" fill="#CC1A17"/>
</svg>
