<svg width="32" height="32" viewBox="0 0 32 32" fill="none" xmlns="http://www.w3.org/2000/svg">
<g clip-path="url(#clip0_225_76)">
<path d="M10.6738 23.5454L9.42881 21.5235L6.79997 21.9962L10.2573 15.8586H3.51562V31.9999H15.0029V15.8586L10.6738 23.5454Z" fill="#CC1A17"/>
<path d="M29.5808 8.15606H21.9526C22.3987 7.92596 22.797 7.6856 23.1498 7.43044C24.5063 6.45764 25.2267 5.22512 25.2244 4.00171C25.2244 2.99815 24.7498 1.56059 24.0602 0.961412C23.3694 0.355404 22.4533 0 21.4757 0C20.431 0 19.4603 0.358821 18.6284 0.916987C17.3777 1.75538 16.399 3.57112 15.7014 4.95629C15.6661 5.02577 15.6308 5.09298 15.5967 5.16019C15.3418 4.62594 15.0436 3.55632 14.7056 3.06877C14.1138 2.22355 13.4026 1.47629 12.5673 0.916987C11.7376 0.358821 10.768 0 9.72447 0C8.68431 0.00341734 7.73178 0.439698 7.01938 1.11291C6.31039 1.7793 5.81421 3.27951 5.80966 4.35142C5.8051 4.97679 5.98719 5.63178 6.36388 6.22754C6.83729 6.97366 7.58725 7.62409 8.62286 8.15606H1.6001L1.61603 14.575H14.8035V8.15606H16.4104V14.575H29.6001L29.5808 8.15606ZM9.07807 6.14894C8.54889 5.81404 8.22341 5.478 8.03222 5.17614C7.84672 4.87655 7.78186 4.35028 7.78186 4.0917C7.77731 3.65997 7.99239 2.90246 8.37477 2.54706C8.74804 2.19052 9.2556 1.97067 9.71081 1.97067H9.72447C10.3106 1.97522 10.8909 2.17115 11.4759 2.55731C12.3465 3.13256 13.167 4.69657 13.7372 5.84252C14.0353 6.42574 14.2629 7.03517 14.4165 7.63093C11.7752 7.35754 10.0682 6.77431 9.07807 6.14894ZM18.106 4.75352C18.5817 4.07119 19.1428 2.94575 19.7243 2.55731C20.3024 2.17115 20.8896 1.97522 21.4757 1.97067H21.4814C21.9696 1.97067 22.4396 2.16204 22.7594 2.44568C23.0803 2.73387 23.2522 3.26128 23.2522 3.63264C23.2454 4.07119 23.0189 5.08045 21.9958 5.82885C21.0251 6.53738 19.3397 7.26299 16.7484 7.77104C16.993 6.74242 17.4722 5.65342 18.106 4.75352Z" fill="#CC1A17"/>
<path d="M24.4144 21.97L21.7867 21.5235L20.5462 23.5693L16.2729 15.9623V31.9999H27.7021V15.8586H20.9605L24.4144 21.97Z" fill="#CC1A17"/>
</g>
<defs>
<clipPath id="clip0_225_76">
<rect width="32" height="32" fill="white"/>
</clipPath>
</defs>
</svg>
