<svg width="32" height="32" viewBox="0 0 32 32" fill="none" xmlns="http://www.w3.org/2000/svg">
<g clip-path="url(#clip0_225_65)">
<path d="M0.586 14.586L14.586 0.586C14.961 0.211 15.469 0 16 0H30C31.1055 0 32 0.8945 32 2V16C32 16.531 31.789 17.039 31.414 17.414L17.414 31.414C17.0235 31.8045 16.5115 32 16 32C15.4885 32 14.9765 31.8045 14.586 31.414L0.586 17.414C-0.195499 16.633 -0.195499 15.367 0.586 14.586ZM22 14.002C24.209 14.002 26 12.211 26 10.002C26 7.793 24.209 6.002 22 6.002C19.791 6.002 18 7.793 18 10.002C18 12.211 19.791 14.002 22 14.002Z" fill="#CC1A17"/>
</g>
<defs>
<clipPath id="clip0_225_65">
<rect width="32" height="32" fill="white" transform="matrix(-1 0 0 1 32 0)"/>
</clipPath>
</defs>
</svg>
