<svg width="32" height="32" viewBox="0 0 32 32" fill="none" xmlns="http://www.w3.org/2000/svg">
<path d="M20.665 3.90625C17.3513 3.90625 14.665 6.59292 14.665 9.90625C14.665 13.2196 17.3513 15.9062 20.665 15.9062C23.9788 15.9062 26.665 13.2196 26.665 9.90625C26.665 6.59292 23.9788 3.90625 20.665 3.90625ZM10.665 5.23958C7.71957 5.23958 5.33171 7.62758 5.33171 10.5729C5.33171 13.5183 7.71957 15.9062 10.665 15.9062C11.7709 15.9062 12.7804 15.6023 13.6688 14.981C11.3904 11.5943 11.7133 8.35158 12.955 5.73958C12.2458 5.40358 11.4669 5.23958 10.665 5.23958ZM6.74837 17.6982C4.30291 18.7076 2.66504 21.1809 2.66504 23.9062V26.5729C2.66504 27.3089 3.26197 27.9062 3.99837 27.9062L9.53544 27.9089C9.22344 26.8956 9.31517 25.2529 9.33571 23.9236C9.37904 21.1009 10.5464 19.0876 11.0036 18.5569C10.1633 18.5502 9.15491 18.3462 8.41504 18.0316C8.23637 17.9556 8.13264 17.8956 7.79011 17.7396C7.45424 17.5863 7.08944 17.5569 6.74837 17.6982ZM16.0817 17.6982C13.6362 18.7076 11.9984 21.1809 11.9984 23.9062V26.5729C11.9984 27.3089 12.5953 27.9062 13.3317 27.9062H27.9984C28.7348 27.9062 29.3317 27.3089 29.3317 26.5729V23.9062C29.3317 21.2449 27.6848 18.8316 25.2484 17.7809C24.9054 17.6329 24.5058 17.6289 24.165 17.7809C22.9853 18.3103 21.836 18.5729 20.665 18.5729C19.4981 18.5729 18.3448 18.2956 17.1234 17.7396C16.7876 17.5863 16.4228 17.5569 16.0817 17.6982Z" fill="#CC1A17"/>
</svg>
