<svg width="32" height="32" viewBox="0 0 32 32" fill="none" xmlns="http://www.w3.org/2000/svg">
<g clip-path="url(#clip0_225_130)">
<path d="M11.4306 17.5367C12.1547 17.6416 14.0063 13.2879 14.1394 13.1911C14.2726 13.0943 16.9391 13.305 16.5871 11.8851C15.7853 12.5638 15.4092 11.8286 15.4455 11.2941C15.4818 10.7586 16.1605 9.62196 16.339 9.69861C16.5175 9.77626 16.8251 10.4096 17.4665 9.82266C16.4953 9.91544 16.7243 8.49445 17.0258 8.32401C17.3284 8.15458 18.5012 7.63621 18.8411 7.30642C19.181 6.97664 19.2072 5.93687 19.9001 6.1658C20.5929 6.39473 20.0816 7.86917 20.2883 8.36536C20.4951 8.86155 22.3689 10.4449 22.3376 10.9441C22.3064 11.4443 21.5187 11.3546 21.5359 12.0525C21.5359 12.3349 22.027 12.5456 22.0401 12.8754C22.0542 13.2052 21.5096 13.4533 21.5096 13.4533C21.5096 13.4533 21.9766 13.5814 21.8858 14.0765C21.793 14.5707 21.195 14.4215 21.0034 14.5243C20.9136 14.5737 21.9221 15.6801 21.1708 16.5141C20.4931 17.3118 17.1014 16.4718 16.4489 16.7249C15.2216 17.2019 14.205 18.8569 14.8817 19.6405C15.5574 20.4231 17.8921 22.9494 18.4982 25.0481C19.538 27.7993 16.9895 32.6019 15.5645 29.1185C13.5475 30.4759 17.765 35.461 23.681 27.9587C28.2142 21.8582 25.9975 10.7515 24.6582 8.25644C23.3209 5.7624 17.0863 -2.85431 10.3959 0.959875C2.07364 5.50624 6.03204 16.506 11.4306 17.5367Z" fill="#CC1A17"/>
</g>
<defs>
<clipPath id="clip0_225_130">
<rect width="32" height="32" fill="white"/>
</clipPath>
</defs>
</svg>
