<svg width="32" height="32" viewBox="0 0 32 32" fill="none" xmlns="http://www.w3.org/2000/svg">
<g clip-path="url(#clip0_225_51)">
<path d="M25.3611 15.8982C28.9717 15.8982 31.8986 14.2355 31.8986 12.1843C31.8986 10.1332 28.9717 8.47046 25.3611 8.47046C21.7506 8.47046 18.8237 10.1332 18.8237 12.1843C18.8237 14.2355 21.7506 15.8982 25.3611 15.8982Z" fill="#CC1A17"/>
<path fill-rule="evenodd" clip-rule="evenodd" d="M25.4588 18.0348C20.783 18.0348 18.9214 16.0752 18.9214 14.9402V19.8023C18.9214 21.8541 21.8484 23.5143 25.4588 23.5143C29.0729 23.5143 32 21.8541 32 19.8023V15.0569C32 16.1938 30.1364 18.0348 25.4588 18.0348Z" fill="#CC1A17"/>
<path fill-rule="evenodd" clip-rule="evenodd" d="M25.4588 25.5474C21.2762 25.5474 18.9214 23.6631 18.9214 22.5281V27.345C18.9214 29.3968 21.8484 31.0589 25.4588 31.0589C29.0729 31.0589 32 29.3968 32 27.345V22.4697C32 23.6048 29.6433 25.5474 25.4588 25.5474Z" fill="#CC1A17"/>
<path d="M9.29315 8.36893C13.386 8.36893 16.704 6.70617 16.704 4.65504C16.704 2.60392 13.386 0.941162 9.29315 0.941162C5.20026 0.941162 1.88232 2.60392 1.88232 4.65504C1.88232 6.70617 5.20026 8.36893 9.29315 8.36893Z" fill="#CC1A17"/>
<path fill-rule="evenodd" clip-rule="evenodd" d="M9.5285 10.5055C4.22968 10.5055 2.11768 8.54595 2.11768 7.41089V12.273C2.11768 14.3248 5.43626 15.985 9.5285 15.985C13.6245 15.985 16.9412 14.3248 16.9412 12.273V7.52759C16.9412 8.66454 14.8273 10.5055 9.5285 10.5055Z" fill="#CC1A17"/>
<path fill-rule="evenodd" clip-rule="evenodd" d="M9.5285 18.0178C4.78685 18.0178 2.11768 16.1336 2.11768 14.9985V19.8155C2.11768 21.8672 5.43626 23.5294 9.5285 23.5294C13.6245 23.5294 16.9412 21.8672 16.9412 19.8155V14.9402C16.9412 16.0752 14.2683 18.0178 9.5285 18.0178Z" fill="#CC1A17"/>
<path fill-rule="evenodd" clip-rule="evenodd" d="M9.5285 25.5474C4.78685 25.5474 2.11768 23.6631 2.11768 22.5281V27.345C2.11768 29.3968 5.43626 31.0589 9.5285 31.0589C13.6245 31.0589 16.9412 29.3968 16.9412 27.345V22.4697C16.9412 23.6048 14.2683 25.5474 9.5285 25.5474Z" fill="#CC1A17"/>
</g>
<defs>
<clipPath id="clip0_225_51">
<rect width="32" height="32" fill="white"/>
</clipPath>
</defs>
</svg>
