<svg width="32" height="32" viewBox="0 0 32 32" fill="none" xmlns="http://www.w3.org/2000/svg">
<g clip-path="url(#clip0_225_143)">
<path d="M9.92023 30.4316H1.60791V31.7601H9.92023V30.4316Z" fill="#CC1A17"/>
<path d="M1.60791 29.9952H9.92023V8.40088H1.60791V29.9952ZM2.63476 9.92034H3.68599V28.6921H2.63476V9.92034Z" fill="#CC1A17"/>
<path d="M1.60791 0V7.85933H9.92023V0H1.60791ZM3.68497 7.48251H2.63476V0.438774H3.68599L3.68497 7.48251Z" fill="#CC1A17"/>
<path d="M22.0801 24.1406V32H30.3934V24.1406H22.0801ZM24.1571 31.6242H23.1069V24.5794H24.1561L24.1571 31.6242Z" fill="#CC1A17"/>
<path d="M20.4417 30.4561H12.1304V31.7835H20.4417V30.4561Z" fill="#CC1A17"/>
<path d="M19.6393 8.42613V6.65073H19.1832V6.07077H17.8009V3.689L15.1875 3.68799V6.07077H13.6163V6.65073H13.1227V8.42715H12.1313V30.0205H20.4427V8.42613H19.6393ZM14.2094 28.7164H13.1572V9.94356H14.2094V28.7164ZM16.516 5.49184C16.1778 5.49184 15.9036 5.2176 15.9036 4.87938C15.9036 4.54116 16.1778 4.26693 16.516 4.26693C16.8543 4.26693 17.1285 4.54116 17.1285 4.87938C17.1285 5.2176 16.8543 5.49184 16.516 5.49184Z" fill="#CC1A17"/>
<path d="M16.516 5.13009C16.654 5.13009 16.7658 5.01822 16.7658 4.88023C16.7658 4.74224 16.654 4.63037 16.516 4.63037C16.378 4.63037 16.2661 4.74224 16.2661 4.88023C16.2661 5.01822 16.378 5.13009 16.516 5.13009Z" fill="#CC1A17"/>
</g>
<defs>
<clipPath id="clip0_225_143">
<rect width="32" height="32" fill="white"/>
</clipPath>
</defs>
</svg>
