<svg width="32" height="32" viewBox="0 0 32 32" fill="none" xmlns="http://www.w3.org/2000/svg">
<g clip-path="url(#clip0_225_159)">
<path d="M14.0724 27.0122C14.0724 27.0122 16.9803 24.1031 17.4776 23.6069C17.973 23.1107 17.7792 16.0647 18.8774 14.9665C19.9755 13.8669 32.0001 1.84228 32.0001 1.84228L30.4917 0.333984C30.4917 0.333984 18.4241 12.4016 17.368 13.4568C16.3129 14.5124 8.70707 13.933 8.25485 14.3861C7.80313 14.8393 4.85107 17.7909 4.85107 17.7909L14.0724 27.0122Z" fill="#CC1A17"/>
<path d="M0 24.1021L0.331852 24.434C0.478122 24.2852 0.62347 24.1374 0.769824 23.9896C1.80293 22.9697 2.83948 21.9537 3.63722 21.2117C4.43395 20.4697 4.9772 19.9863 4.9772 19.9863C4.9772 19.9863 4.49514 20.5305 3.75272 21.3273C3.01081 22.1259 1.9948 23.1616 0.975356 24.1951C0.826069 24.3409 0.67829 24.4868 0.529002 24.6327L0.73948 24.8431C0.885834 24.6943 1.03018 24.5466 1.17754 24.3968C2.21115 23.3779 3.24769 22.3609 4.04443 21.6189C4.84216 20.878 5.38542 20.3954 5.38542 20.3954C5.38542 20.3954 4.90335 20.9377 4.16044 21.7364C3.41894 22.5331 2.40251 23.5707 1.38307 24.6032C1.2347 24.7491 1.0865 24.8949 0.938139 25.0409L1.16966 25.2729C1.31601 25.1231 1.46035 24.9762 1.60771 24.8275C2.64082 23.8076 3.67645 22.7917 4.4741 22.0497C5.27184 21.3077 5.81509 20.8242 5.81509 20.8242C5.81509 20.8242 5.33202 21.3684 4.59061 22.1661C3.8487 22.9639 2.83269 23.9994 1.81324 25.0331C1.66396 25.1799 1.51668 25.3247 1.36689 25.4706L1.54552 25.6487C1.69179 25.501 1.83713 25.3522 1.98357 25.2034C3.01668 24.1835 4.05323 23.1675 4.85096 22.4256C5.64912 21.6836 6.19237 21.2001 6.19237 21.2001C6.19237 21.2001 5.71324 21.7482 4.97033 22.546C4.22892 23.3438 3.21241 24.3802 2.19296 25.4129C2.04367 25.5597 1.8964 25.7046 1.74711 25.8513L1.88122 25.9854C2.02758 25.8377 2.17293 25.6899 2.31928 25.5402C3.35289 24.5211 4.38894 23.5051 5.18667 22.7631C5.98391 22.0222 6.52716 21.5396 6.52716 21.5396C6.52716 21.5396 6.04459 22.0828 5.3031 22.8806C4.56111 23.6783 3.54518 24.7149 2.52573 25.7474C2.37645 25.8942 2.22917 26.0391 2.08089 26.186L2.26932 26.3739C2.41567 26.226 2.56102 26.0782 2.70738 25.9285C3.74049 24.9096 4.77703 23.8927 5.57477 23.1517C6.37251 22.4097 6.91576 21.9262 6.91576 21.9262C6.91576 21.9262 6.4347 22.4694 5.69321 23.2672C4.95122 24.0649 3.93479 25.1015 2.91584 26.1351C2.76605 26.2819 2.61878 26.4267 2.46949 26.5735L2.63688 26.7399C2.78324 26.5921 2.92858 26.4443 3.07586 26.2955C4.10947 25.2746 5.14459 24.2586 5.94375 23.5176C6.74049 22.7756 7.28474 22.2941 7.28474 22.2941C7.28474 22.2941 6.80168 22.8373 6.05977 23.635C5.31827 24.4328 4.30285 25.4694 3.2824 26.503C3.13311 26.6498 2.98583 26.7946 2.83755 26.9404L3.04702 27.15C3.19338 27.0021 3.33873 26.8543 3.48508 26.7046C4.51819 25.6848 5.55474 24.6688 6.35247 23.9268C7.15021 23.1848 7.69346 22.7014 7.69346 22.7014C7.69346 22.7014 7.2114 23.2455 6.46899 24.0433C5.72707 24.841 4.71106 25.8766 3.69162 26.9102C3.54241 27.057 3.39505 27.2019 3.24635 27.3486L3.45624 27.5591C3.6026 27.4093 3.74644 27.2625 3.8938 27.1128C4.92741 26.0939 5.96396 25.0779 6.76169 24.3359C7.55943 23.5939 8.10268 23.1105 8.10268 23.1105C8.10268 23.1105 7.62062 23.6547 6.8777 24.4514C6.1363 25.2501 5.11978 26.2857 4.10034 27.3183C3.95205 27.4662 3.80369 27.611 3.65549 27.7578L3.84392 27.9457C3.99028 27.797 4.13462 27.6502 4.28198 27.5013C5.31559 26.4813 6.35163 25.4654 7.14937 24.7235C7.94761 23.9815 8.49078 23.4979 8.49078 23.4979C8.49078 23.4979 8.00721 24.0422 7.26681 24.8399C6.5249 25.6378 5.50888 26.6742 4.48944 27.7069C4.34015 27.8547 4.19287 28.0005 4.04459 28.1463L4.24375 28.345C4.39011 28.1963 4.53546 28.0494 4.68181 27.8997C5.71542 26.8808 6.75054 25.8648 7.54971 25.1228C8.34644 24.3808 8.8907 23.8974 8.8907 23.8974C8.8907 23.8974 8.40863 24.4406 7.66572 25.2383C6.92431 26.037 5.9078 27.0726 4.88835 28.1062C4.73814 28.2531 4.59078 28.3979 4.4425 28.5447L4.64166 28.7434C4.78801 28.5936 4.93236 28.4468 5.07972 28.2981C6.11333 27.2782 7.14845 26.2621 7.94661 25.5202C8.74434 24.7782 9.28759 24.2958 9.28759 24.2958C9.28759 24.2958 8.80453 24.8389 8.06261 25.6367C7.32112 26.4345 6.30469 27.471 5.28525 28.5036C5.13596 28.6504 4.98868 28.7953 4.8394 28.9412L4.98575 29.087C5.1321 28.9383 5.27645 28.7914 5.42381 28.6416C6.45692 27.6227 7.49346 26.6058 8.2912 25.8648C9.08894 25.1228 9.63219 24.6393 9.63219 24.6393C9.63219 24.6393 9.15013 25.1826 8.40771 25.9803C7.66572 26.7781 6.64929 27.8145 5.63034 28.8482C5.48198 28.994 5.33328 29.1409 5.185 29.2857L5.29849 29.4003C5.44484 29.2515 5.59019 29.1046 5.73655 28.9559C6.76966 27.936 7.8062 26.92 8.60394 26.178C9.40067 25.436 9.94493 24.9526 9.94493 24.9526C9.94493 24.9526 9.46186 25.4968 8.72045 26.2955C7.97854 27.0932 6.96303 28.1298 5.94308 29.1634C5.79338 29.3093 5.64602 29.455 5.49774 29.601L5.67544 29.7781C5.82179 29.6294 5.96614 29.4825 6.11349 29.3317C7.14661 28.3129 8.18315 27.2958 8.98089 26.5549C9.77862 25.8129 10.3219 25.3305 10.3219 25.3305C10.3219 25.3305 9.83982 25.8746 9.0974 26.6714C8.35541 27.4692 7.33889 28.5057 6.32003 29.5393C6.17167 29.6861 6.02297 29.831 5.87469 29.9768L6.00922 30.1109C6.15557 29.9622 6.29992 29.8155 6.44728 29.6666C7.48039 28.6466 8.51693 27.6306 9.31467 26.8887C10.1124 26.1468 10.6557 25.6632 10.6557 25.6632C10.6557 25.6632 10.1736 26.2074 9.43118 27.0042C8.68927 27.8029 7.67276 28.8385 6.65381 29.8721C6.50411 30.0199 6.35675 30.1657 6.20847 30.3116L6.36513 30.4672C6.51148 30.3194 6.65583 30.1716 6.80319 30.0227C7.8363 29.0029 8.87184 27.9869 9.67058 27.245C10.4683 26.503 11.0115 26.0205 11.0115 26.0205C11.0115 26.0205 10.5285 26.5637 9.78709 27.3614C9.0461 28.1592 8.02858 29.1957 7.00972 30.2294C6.86136 30.3772 6.71266 30.5219 6.56438 30.6668L6.69992 30.8019C6.84627 30.6532 6.99061 30.5064 7.13797 30.3566C8.17108 29.3377 9.20671 28.3207 10.0044 27.5797C10.8021 26.8378 11.3453 26.3543 11.3453 26.3543C11.3453 26.3543 10.8623 26.8974 10.1209 27.6953C9.37896 28.493 8.36245 29.5295 7.3435 30.5632C7.19522 30.7099 7.04644 30.8558 6.89715 31.0016L7.02146 31.1249C7.16781 30.9771 7.31215 30.8295 7.45951 30.6806C8.49313 29.6606 9.52825 28.6446 10.3274 27.9027C11.1251 27.1607 11.6684 26.6782 11.6684 26.6782C11.6684 26.6782 11.1853 27.2214 10.4434 28.0192C9.70201 28.817 8.6855 29.8535 7.66605 30.8861C7.51676 31.0339 7.36949 31.1777 7.2202 31.3246L7.56278 31.6662L12.7396 26.4892L5.17686 18.9263L0 24.1021Z" fill="#CC1A17"/>
</g>
<defs>
<clipPath id="clip0_225_159">
<rect width="32" height="32" fill="white"/>
</clipPath>
</defs>
</svg>
