<svg width="32" height="32" viewBox="0 0 32 32" fill="none" xmlns="http://www.w3.org/2000/svg">
<g clip-path="url(#clip0_225_71)">
<path d="M28.5122 20.3812C28.3447 19.8383 28.0605 19.3286 27.6509 18.9008C26.5446 17.7516 24.8602 17.4504 23.5118 18.1054C23.501 18.1074 23.4951 18.1025 23.4824 18.1054C21.9586 18.7867 19.5745 17.3549 18.3565 16.9622C17.6882 16.7468 17.0797 16.2804 16.4937 15.8662C17.4187 15.9261 18.3928 16.4203 18.8455 16.6552C18.9337 16.7 19.0101 16.659 18.9591 16.5976C18.5437 16.1147 18.2007 15.6654 17.995 15.2414L19.1669 16.3023L19.3276 16.1278L17.8244 14.7672C17.797 14.6493 17.7871 14.5338 17.7911 14.4188L19.4853 15.9529L19.6451 15.7784L17.8342 14.1405C17.8548 14.0664 17.8832 13.9928 17.9185 13.9197L19.794 15.6156L19.9547 15.4407L18.044 13.7136C18.089 13.6512 18.137 13.5917 18.1929 13.5298L20.1135 15.2672L20.2732 15.0927L18.3516 13.3549C18.3977 13.3042 18.4515 13.2463 18.5123 13.1805L20.4329 14.9178L20.5936 14.7443L18.6731 13.0055C18.7181 12.9558 18.7701 12.8997 18.821 12.8432L20.7416 14.5815L20.9013 14.407L18.9807 12.6692C19.0229 12.6225 19.0669 12.5747 19.1121 12.5236L21.0326 14.2624L21.1924 14.0879L19.2717 12.3501C19.3237 12.2921 19.3766 12.2341 19.4315 12.1756L21.3521 13.914L21.5108 13.7395L19.5903 12.0007C19.6402 11.9476 19.6892 11.894 19.7392 11.8379L21.6598 13.5757L21.8195 13.4008L19.8979 11.6654C19.9498 11.6074 20.0018 11.5494 20.0567 11.4904L21.9773 13.2282L22.1361 13.0547L20.2154 11.3169C20.2684 11.259 20.3213 11.2014 20.3762 11.1424L22.2968 12.8808L22.4555 12.7063L20.5359 10.9675C20.5859 10.9149 20.6349 10.8608 20.6839 10.8062L22.6045 12.5435L22.7632 12.3691L20.8427 10.6313C20.8819 10.5894 20.921 10.5465 20.9582 10.5055L22.8788 12.2434L23.0386 12.0684L21.118 10.3311C21.1719 10.2721 21.2248 10.2141 21.2777 10.1561L23.1983 11.8939L23.359 11.7194L21.4384 9.98159C21.4874 9.9275 21.5374 9.8739 21.5874 9.81883L23.508 11.5576L23.6667 11.3826L21.7462 9.64532C21.7991 9.58736 21.852 9.52934 21.9058 9.47034L23.8265 11.2091L23.9843 11.0347L22.0656 9.29394C22.1194 9.23598 22.1714 9.17698 22.2263 9.11896L24.1469 10.8577L24.3057 10.6833L22.385 8.94452C22.436 8.89093 22.485 8.83586 22.534 8.78177L24.4546 10.5196L24.6153 10.3451L22.6937 8.60733C22.7358 8.56056 22.778 8.51422 22.8211 8.46843L24.7417 10.2062L24.9014 10.0313L22.9808 8.29394C23.0298 8.24078 23.0788 8.1862 23.1278 8.13217L25.0484 9.86997L25.2081 9.69499L23.2875 7.95762C23.3316 7.90937 23.3757 7.86063 23.4198 7.81288L25.3404 9.55117L25.5001 9.37674L23.5795 7.63795C23.6324 7.57999 23.6863 7.52148 23.7392 7.46444L25.6598 9.20181L25.8186 9.02738L23.898 7.28957C23.949 7.23499 23.999 7.17992 24.047 7.12725L25.9676 8.86462L26.1273 8.69013L24.2066 6.95232C24.2605 6.8924 24.3135 6.83585 24.3664 6.77789L26.287 8.51668L26.4457 8.3417L24.5252 6.60536C24.5801 6.54538 24.633 6.48643 24.6859 6.43038L26.6065 8.16819L26.7653 7.99321L24.8466 6.25584C24.8976 6.19978 24.9465 6.14619 24.9945 6.09308L26.9152 7.8304L27.0748 7.65689L25.1543 5.91859C25.1955 5.87427 25.2327 5.83334 25.2699 5.7924L27.1905 7.53021L27.3502 7.3567L25.4286 5.61693C25.4873 5.55307 25.5403 5.49511 25.5883 5.44244L27.5089 7.17981L27.6686 7.00538L25.7479 5.26861C25.8302 5.17795 25.8772 5.12681 25.8772 5.12681C25.8841 5.11999 25.8899 5.11415 25.8968 5.10634L27.8174 6.84464L27.9762 6.6702L26.0555 4.9324C26.1104 4.87241 26.1643 4.81494 26.2163 4.75791L28.1369 6.4962L28.2966 6.32275L26.376 4.58396C26.4318 4.52207 26.4847 4.46356 26.5357 4.41045L28.4563 6.14826L28.617 5.97328L26.6964 4.23596C26.7543 4.17314 26.8023 4.11998 26.8444 4.07321L28.765 5.81058L28.9247 5.63707L27.006 3.90068C27.0492 3.85053 27.0923 3.80664 27.1374 3.76571L29.0502 5.49626L29.2108 5.32177L27.3314 3.62195C27.4058 3.57517 27.4823 3.53811 27.5588 3.5094L29.3696 5.14826L29.5303 4.97426L27.8351 3.44014C27.9507 3.42552 28.0663 3.42453 28.1869 3.43916L29.69 4.79982L29.8498 4.62484L28.6778 3.56393C29.111 3.72281 29.5793 4.01033 30.0889 4.36461C30.1575 4.41237 30.2271 4.35779 30.1732 4.27493C29.1394 2.69306 26.9356 2.21451 26.0772 3.15213C25.8949 3.35238 25.502 3.78077 24.9983 4.33148C24.9983 4.33148 21.8626 7.75982 19.5785 10.2579C19.4834 10.3607 19.3894 10.4646 19.2982 10.5644C18.3566 11.5927 17.6001 12.4197 17.3365 12.7072L15.1174 15.1346C15.1047 15.1317 15.0915 15.1244 15.0782 15.1215C15.015 15.1074 14.9009 15.0635 14.7412 14.9957L7.95089 0.666748L11.6726 13.1882C11.6726 13.1882 11.7049 13.3052 11.7578 13.5089C7.17433 11.1132 0 6.53616 0 6.53616C0 6.53616 12.1836 17.119 12.6211 17.4738C12.6393 17.5771 12.6652 17.6814 12.6902 17.7857L4.25231 27.01L4.52129 27.2537L12.9288 18.5772C13.6814 20.6776 15.2007 22.8774 13.6084 24.0002C13.6045 24.0071 13.6084 24.0139 13.6055 24.0217C12.1704 25.0246 11.8573 27.1445 12.9333 28.8287C14.0381 30.5587 16.1841 31.1776 17.7186 30.2088C18.6613 29.6133 19.1297 28.4076 19.4981 27.2478C19.1836 26.316 18.9239 25.9807 18.4986 25.3141C18.2204 24.8784 17.8754 24.5148 17.4913 24.2263C16.6584 23.4387 14.2214 17.5586 14.4703 17.0099C17.4414 16.966 21.2375 19.2643 21.6697 21.4017C21.6736 21.4017 21.6814 21.3959 21.6854 21.3939C21.7578 22.2194 22.0969 23.0021 22.6907 23.6191C23.8862 24.8618 25.7647 25.1269 27.1532 24.2497C27.3354 24.1347 27.5069 24.0012 27.6627 23.8521C28.2291 23.3141 28.5593 22.6045 28.6475 21.8306C28.9709 21.7165 29.4393 21.6025 29.8832 21.702C31.5235 22.1279 31.9665 20.7847 31.9998 20.3648C32.033 19.967 29.6616 21.1425 28.5122 20.3812ZM12.5148 16.0216C12.3032 15.6917 12.4021 15.2511 12.7343 15.0406C13.0684 14.831 13.5089 14.929 13.7196 15.2604C13.9312 15.5917 13.8333 16.0308 13.5001 16.2414C13.1679 16.4509 12.7255 16.353 12.5148 16.0216ZM15.4237 24.6065C15.507 24.6152 15.5902 24.622 15.6726 24.6298C16.3801 24.7419 17.0856 25.1923 17.5481 25.9144C18.3193 27.123 18.1243 28.624 17.115 29.2614C16.1057 29.8998 14.6559 29.4368 13.8852 28.2293C13.1145 27.0216 13.3085 25.5187 14.3178 24.8813C14.652 24.6688 15.0341 24.5899 15.4237 24.6065ZM26.8866 23.0412C26.7826 23.1386 26.6709 23.2283 26.5515 23.3043C25.6128 23.8949 24.333 23.702 23.5069 22.8423C23.0454 22.3627 22.7886 21.7438 22.7828 21.1035C22.7779 20.4729 23.0179 19.8969 23.458 19.4778C23.5609 19.3803 23.6735 19.2916 23.7931 19.2166C24.7309 18.6249 26.0096 18.8189 26.8356 19.6756C27.2982 20.1562 27.5539 20.776 27.5598 21.4164C27.5646 22.045 27.3236 22.624 26.8866 23.0412Z" fill="#CC1A17"/>
</g>
<defs>
<clipPath id="clip0_225_71">
<rect width="32" height="32" fill="white"/>
</clipPath>
</defs>
</svg>
