<svg width="56" height="56" viewBox="0 0 56 56" fill="none" xmlns="http://www.w3.org/2000/svg">
<path d="M28 3.5C34.4978 3.5 40.7295 6.08124 45.3241 10.6759C49.9188 15.2705 52.5 21.5022 52.5 28C52.5 34.4978 49.9188 40.7295 45.3241 45.3241C40.7295 49.9188 34.4978 52.5 28 52.5C21.5022 52.5 15.2705 49.9188 10.6759 45.3241C6.08124 40.7295 3.5 34.4978 3.5 28C3.5 21.5022 6.08124 15.2705 10.6759 10.6759C15.2705 6.08124 21.5022 3.5 28 3.5ZM28 14C27.5556 13.9996 27.1161 14.0919 26.7094 14.271C26.3027 14.4501 25.9379 14.712 25.6382 15.0401C25.3384 15.3681 25.1104 15.7551 24.9687 16.1762C24.8269 16.5974 24.7746 17.0435 24.815 17.486L26.0925 31.507C26.142 31.9784 26.3643 32.4147 26.7166 32.7319C27.0688 33.0491 27.526 33.2246 28 33.2246C28.474 33.2246 28.9312 33.0491 29.2834 32.7319C29.6357 32.4147 29.858 31.9784 29.9075 31.507L31.1815 17.486C31.2219 17.0438 31.1696 16.598 31.0281 16.1771C30.8866 15.7562 30.6589 15.3694 30.3595 15.0414C30.0602 14.7134 29.6957 14.4514 29.2895 14.2721C28.8832 14.0928 28.4441 14.0001 28 14ZM28 42C28.7426 42 29.4548 41.705 29.9799 41.1799C30.505 40.6548 30.8 39.9426 30.8 39.2C30.8 38.4574 30.505 37.7452 29.9799 37.2201C29.4548 36.695 28.7426 36.4 28 36.4C27.2574 36.4 26.5452 36.695 26.0201 37.2201C25.495 37.7452 25.2 38.4574 25.2 39.2C25.2 39.9426 25.495 40.6548 26.0201 41.1799C26.5452 41.705 27.2574 42 28 42Z" fill="#CC1A17"/>
</svg>
