<svg width="212" height="57" viewBox="0 0 212 57" fill="none" xmlns="http://www.w3.org/2000/svg">
<path d="M89.6887 10.891L89.5687 11.347C89.4407 11.267 89.3207 11.203 89.2087 11.155C89.0967 11.107 88.9607 11.083 88.8007 11.083C88.4167 11.083 88.1207 11.211 87.9127 11.467C87.7047 11.707 87.6807 12.059 87.8407 12.523L91.9927 24.907C91.8487 25.323 91.7207 25.715 91.6087 26.083C91.4967 26.403 91.3847 26.731 91.2727 27.067C91.1767 27.387 91.1047 27.635 91.0567 27.811L85.8487 12.355C85.7207 11.971 85.5927 11.667 85.4647 11.443C85.3527 11.203 85.1367 11.083 84.8167 11.083C84.6727 11.083 84.5367 11.107 84.4087 11.155C84.2967 11.203 84.1767 11.267 84.0487 11.347L83.9287 10.891H89.6887ZM98.1367 10.915L98.0167 11.347C97.8887 11.267 97.7687 11.211 97.6567 11.179C97.5447 11.131 97.4167 11.107 97.2727 11.107C97.0007 11.107 96.7767 11.195 96.6007 11.371C96.4247 11.547 96.2727 11.843 96.1447 12.259L95.5687 12.523L95.9767 10.915H98.1367ZM95.6167 12.307L96.5047 11.155L91.6327 26.011H91.3687L95.6167 12.307ZM94.0567 10.915H96.5767L96.0247 12.499L95.6167 12.307C95.7447 11.891 95.7287 11.587 95.5687 11.395C95.4087 11.203 95.1927 11.107 94.9207 11.107C94.7447 11.107 94.5927 11.139 94.4647 11.203C94.3367 11.267 94.2407 11.315 94.1767 11.347L94.0567 10.915Z" fill="#DEC863"/>
<path d="M100.066 21.715C100.066 20.883 100.226 20.099 100.546 19.363C100.866 18.627 101.298 17.987 101.842 17.443C102.402 16.883 103.05 16.443 103.786 16.123C104.522 15.803 105.306 15.643 106.138 15.643C106.97 15.643 107.754 15.803 108.49 16.123C109.242 16.443 109.89 16.883 110.434 17.443C110.994 17.987 111.434 18.627 111.754 19.363C112.074 20.099 112.234 20.883 112.234 21.715C112.234 22.547 112.074 23.331 111.754 24.067C111.434 24.803 110.994 25.451 110.434 26.011C109.89 26.555 109.242 26.987 108.49 27.307C107.754 27.627 106.97 27.787 106.138 27.787C105.306 27.787 104.522 27.627 103.786 27.307C103.05 26.987 102.402 26.555 101.842 26.011C101.298 25.451 100.866 24.803 100.546 24.067C100.226 23.331 100.066 22.547 100.066 21.715ZM102.802 23.899C103.25 24.555 103.738 25.123 104.266 25.603C104.81 26.067 105.37 26.419 105.946 26.659C106.522 26.883 107.098 26.979 107.674 26.947C108.266 26.899 108.826 26.699 109.354 26.347C109.882 25.995 110.266 25.563 110.506 25.051C110.746 24.523 110.858 23.955 110.842 23.347C110.842 22.739 110.722 22.099 110.482 21.427C110.242 20.755 109.898 20.083 109.45 19.411C109.002 18.755 108.514 18.195 107.986 17.731C107.458 17.267 106.914 16.931 106.354 16.723C105.794 16.499 105.226 16.411 104.65 16.459C104.09 16.491 103.546 16.683 103.018 17.035C102.49 17.387 102.09 17.827 101.818 18.355C101.562 18.867 101.434 19.427 101.434 20.035C101.434 20.627 101.546 21.259 101.77 21.931C102.01 22.587 102.354 23.243 102.802 23.899Z" fill="#DEC863"/>
<path d="M115.603 27.739V11.755L117.523 11.179V27.739H115.603ZM113.683 27.739L113.803 27.283C113.931 27.363 114.051 27.427 114.163 27.475C114.275 27.523 114.411 27.547 114.571 27.547C114.731 27.547 114.867 27.523 114.979 27.475C115.091 27.411 115.203 27.315 115.315 27.187C115.395 27.075 115.459 26.955 115.507 26.827C115.571 26.683 115.603 26.499 115.603 26.275C115.603 26.051 115.691 25.955 115.867 25.987C116.043 26.019 116.267 26.075 116.539 26.155C116.811 26.075 117.043 26.019 117.235 25.987C117.427 25.955 117.523 26.051 117.523 26.275C117.523 26.675 117.611 26.987 117.787 27.211C117.979 27.435 118.235 27.547 118.555 27.547C118.699 27.547 118.827 27.523 118.939 27.475C119.067 27.427 119.195 27.363 119.323 27.283L119.443 27.739H113.683ZM117.523 10.915V11.731C117.427 11.827 117.291 11.963 117.115 12.139C116.939 12.299 116.755 12.475 116.563 12.667C116.371 12.859 116.187 13.051 116.011 13.243C115.835 13.419 115.699 13.571 115.603 13.699C115.603 13.203 115.499 12.835 115.291 12.595C115.083 12.339 114.819 12.211 114.499 12.211C114.323 12.211 114.179 12.235 114.067 12.283C113.971 12.315 113.883 12.347 113.803 12.379L113.707 11.995C114.139 11.995 114.699 11.923 115.387 11.779C116.075 11.635 116.787 11.347 117.523 10.915Z" fill="#DEC863"/>
<path d="M120.878 21.715C120.878 20.883 121.038 20.099 121.358 19.363C121.678 18.627 122.11 17.987 122.654 17.443C123.214 16.883 123.862 16.443 124.598 16.123C125.334 15.803 126.118 15.643 126.95 15.643C127.782 15.643 128.566 15.803 129.302 16.123C130.054 16.443 130.702 16.883 131.246 17.443C131.806 17.987 132.246 18.627 132.566 19.363C132.886 20.099 133.046 20.883 133.046 21.715C133.046 22.547 132.886 23.331 132.566 24.067C132.246 24.803 131.806 25.451 131.246 26.011C130.702 26.555 130.054 26.987 129.302 27.307C128.566 27.627 127.782 27.787 126.95 27.787C126.118 27.787 125.334 27.627 124.598 27.307C123.862 26.987 123.214 26.555 122.654 26.011C122.11 25.451 121.678 24.803 121.358 24.067C121.038 23.331 120.878 22.547 120.878 21.715ZM123.614 23.899C124.062 24.555 124.55 25.123 125.078 25.603C125.622 26.067 126.182 26.419 126.758 26.659C127.334 26.883 127.91 26.979 128.486 26.947C129.078 26.899 129.638 26.699 130.166 26.347C130.694 25.995 131.078 25.563 131.318 25.051C131.558 24.523 131.67 23.955 131.654 23.347C131.654 22.739 131.534 22.099 131.294 21.427C131.054 20.755 130.71 20.083 130.262 19.411C129.814 18.755 129.326 18.195 128.798 17.731C128.27 17.267 127.726 16.931 127.166 16.723C126.606 16.499 126.038 16.411 125.462 16.459C124.902 16.491 124.358 16.683 123.83 17.035C123.302 17.387 122.902 17.827 122.63 18.355C122.374 18.867 122.246 19.427 122.246 20.035C122.246 20.627 122.358 21.259 122.582 21.931C122.822 22.587 123.166 23.243 123.614 23.899Z" fill="#DEC863"/>
<path d="M137.16 27.115C137.72 27.147 138.264 27.099 138.792 26.971C139.336 26.843 139.768 26.595 140.088 26.227C140.328 25.955 140.48 25.675 140.544 25.387C140.608 25.083 140.608 24.787 140.544 24.499C140.496 24.211 140.384 23.939 140.208 23.683C140.032 23.411 139.816 23.187 139.56 23.011C139.304 22.835 138.992 22.659 138.624 22.483C138.256 22.291 137.88 22.091 137.496 21.883C137.128 21.675 136.768 21.459 136.416 21.235C136.08 21.011 135.816 20.771 135.624 20.515C135.24 20.019 135.032 19.475 135 18.883C134.984 18.275 135.096 17.715 135.336 17.203C135.592 16.675 135.96 16.235 136.44 15.883C136.936 15.531 137.496 15.355 138.12 15.355C138.504 15.355 138.84 15.403 139.128 15.499C139.432 15.595 139.696 15.699 139.92 15.811C140.16 15.955 140.376 16.115 140.568 16.291L139.752 19.843L139.296 19.651C139.36 19.587 139.416 19.491 139.464 19.363C139.528 19.235 139.584 19.099 139.632 18.955C139.68 18.811 139.72 18.675 139.752 18.547C139.784 18.403 139.808 18.291 139.824 18.211C139.888 17.843 139.88 17.523 139.8 17.251C139.72 16.963 139.592 16.731 139.416 16.555C139.256 16.379 139.056 16.243 138.816 16.147C138.576 16.051 138.328 16.003 138.072 16.003C137.656 15.987 137.24 16.067 136.824 16.243C136.408 16.419 136.12 16.771 135.96 17.299C135.752 18.019 135.816 18.603 136.152 19.051C136.488 19.483 136.936 19.851 137.496 20.155C138.072 20.459 138.664 20.715 139.272 20.923C139.896 21.131 140.376 21.371 140.712 21.643C141 21.867 141.232 22.163 141.408 22.531C141.584 22.883 141.672 23.275 141.672 23.707C141.688 24.139 141.608 24.603 141.432 25.099C141.256 25.579 140.952 26.051 140.52 26.515C140.136 26.931 139.656 27.259 139.08 27.499C138.504 27.723 137.848 27.835 137.112 27.835C136.664 27.835 136.28 27.795 135.96 27.715C135.64 27.651 135.368 27.579 135.144 27.499C134.888 27.403 134.672 27.291 134.496 27.163L135.312 23.731L135.792 23.971C135.728 24.035 135.664 24.131 135.6 24.259C135.536 24.387 135.472 24.523 135.408 24.667C135.36 24.811 135.32 24.947 135.288 25.075C135.256 25.203 135.232 25.307 135.216 25.387C135.152 25.707 135.168 25.979 135.264 26.203C135.36 26.411 135.504 26.579 135.696 26.707C135.888 26.835 136.112 26.931 136.368 26.995C136.64 27.059 136.904 27.099 137.16 27.115Z" fill="#DEC863"/>
<path d="M153.626 27.067C154.442 27.115 155.242 27.019 156.026 26.779C156.81 26.523 157.426 26.139 157.874 25.627C158.21 25.259 158.418 24.859 158.498 24.427C158.578 23.995 158.562 23.571 158.45 23.155C158.354 22.739 158.17 22.347 157.898 21.979C157.642 21.611 157.338 21.299 156.986 21.043C156.634 20.787 156.202 20.515 155.69 20.227C155.194 19.923 154.682 19.603 154.154 19.267C153.642 18.931 153.154 18.587 152.69 18.235C152.226 17.867 151.85 17.499 151.562 17.131C151.018 16.427 150.722 15.683 150.674 14.899C150.626 14.099 150.77 13.363 151.106 12.691C151.458 12.019 151.962 11.467 152.618 11.035C153.29 10.587 154.066 10.363 154.946 10.363C155.49 10.363 155.97 10.427 156.386 10.555C156.818 10.683 157.178 10.819 157.466 10.963C157.818 11.139 158.13 11.339 158.402 11.563L157.25 16.579L156.722 16.339C156.818 16.243 156.906 16.107 156.986 15.931C157.066 15.739 157.138 15.547 157.202 15.355C157.282 15.147 157.346 14.947 157.394 14.755C157.442 14.547 157.474 14.387 157.49 14.275C157.586 13.747 157.578 13.291 157.466 12.907C157.354 12.507 157.17 12.179 156.914 11.923C156.658 11.651 156.354 11.451 156.002 11.323C155.65 11.179 155.282 11.091 154.898 11.059C154.562 11.027 154.226 11.035 153.89 11.083C153.57 11.131 153.266 11.227 152.978 11.371C152.69 11.499 152.434 11.683 152.21 11.923C151.986 12.163 151.818 12.475 151.706 12.859C151.514 13.531 151.49 14.131 151.634 14.659C151.778 15.171 152.026 15.635 152.378 16.051C152.746 16.467 153.186 16.835 153.698 17.155C154.21 17.475 154.73 17.771 155.258 18.043C155.802 18.315 156.314 18.571 156.794 18.811C157.29 19.051 157.69 19.291 157.994 19.531C158.41 19.851 158.77 20.243 159.074 20.707C159.394 21.171 159.594 21.683 159.674 22.243C159.77 22.803 159.722 23.403 159.53 24.043C159.338 24.667 158.938 25.307 158.33 25.963C157.786 26.539 157.106 26.995 156.29 27.331C155.49 27.667 154.578 27.835 153.554 27.835C152.93 27.835 152.386 27.787 151.922 27.691C151.458 27.595 151.074 27.483 150.77 27.355C150.418 27.227 150.114 27.075 149.858 26.899L150.986 22.051L151.514 22.291C151.418 22.387 151.33 22.531 151.25 22.723C151.17 22.899 151.09 23.091 151.01 23.299C150.946 23.491 150.89 23.691 150.842 23.899C150.794 24.091 150.762 24.243 150.746 24.355C150.65 24.883 150.674 25.323 150.818 25.675C150.978 26.011 151.202 26.283 151.49 26.491C151.778 26.683 152.114 26.819 152.498 26.899C152.882 26.979 153.258 27.035 153.626 27.067Z" fill="#DEC863"/>
<path d="M161.732 17.299V16.795H167.252V17.299H161.732ZM167.18 27.715C166.732 27.731 166.292 27.667 165.86 27.523C165.428 27.379 165.036 27.155 164.684 26.851C164.348 26.547 164.068 26.163 163.844 25.699C163.636 25.219 163.532 24.659 163.532 24.019H165.452C165.42 24.899 165.62 25.627 166.052 26.203C166.484 26.763 167.02 27.043 167.66 27.043C167.868 27.043 168.132 27.019 168.452 26.971C168.772 26.907 169.068 26.779 169.34 26.587C169.628 26.395 169.852 26.115 170.012 25.747C170.172 25.363 170.196 24.859 170.084 24.235C170.068 24.123 170.036 23.971 169.988 23.779C169.94 23.571 169.876 23.371 169.796 23.179C169.732 22.971 169.66 22.779 169.58 22.603C169.5 22.411 169.412 22.267 169.316 22.171L169.844 21.931L171.164 27.715H167.18ZM163.532 24.019V12.523L165.452 10.915V24.019H163.532ZM165.452 10.915V11.731C165.356 11.827 165.22 11.963 165.044 12.139C164.868 12.299 164.684 12.475 164.492 12.667C164.3 12.859 164.116 13.051 163.94 13.243C163.764 13.419 163.628 13.571 163.532 13.699C163.532 13.203 163.428 12.835 163.22 12.595C163.012 12.339 162.748 12.211 162.428 12.211C162.252 12.211 162.108 12.235 161.996 12.283C161.9 12.315 161.812 12.347 161.732 12.379L161.636 11.995C162.244 11.995 162.892 11.899 163.58 11.707C164.268 11.515 164.892 11.251 165.452 10.915Z" fill="#DEC863"/>
<path d="M172.605 21.715C172.605 20.883 172.765 20.099 173.085 19.363C173.405 18.627 173.837 17.987 174.381 17.443C174.941 16.883 175.589 16.443 176.325 16.123C177.061 15.803 177.845 15.643 178.677 15.643C179.509 15.643 180.293 15.803 181.029 16.123C181.781 16.443 182.429 16.883 182.973 17.443C183.533 17.987 183.973 18.627 184.293 19.363C184.613 20.099 184.773 20.883 184.773 21.715C184.773 22.547 184.613 23.331 184.293 24.067C183.973 24.803 183.533 25.451 182.973 26.011C182.429 26.555 181.781 26.987 181.029 27.307C180.293 27.627 179.509 27.787 178.677 27.787C177.845 27.787 177.061 27.627 176.325 27.307C175.589 26.987 174.941 26.555 174.381 26.011C173.837 25.451 173.405 24.803 173.085 24.067C172.765 23.331 172.605 22.547 172.605 21.715ZM175.341 23.899C175.789 24.555 176.277 25.123 176.805 25.603C177.349 26.067 177.909 26.419 178.485 26.659C179.061 26.883 179.637 26.979 180.213 26.947C180.805 26.899 181.365 26.699 181.893 26.347C182.421 25.995 182.805 25.563 183.045 25.051C183.285 24.523 183.397 23.955 183.381 23.347C183.381 22.739 183.261 22.099 183.021 21.427C182.781 20.755 182.437 20.083 181.989 19.411C181.541 18.755 181.053 18.195 180.525 17.731C179.997 17.267 179.453 16.931 178.893 16.723C178.333 16.499 177.765 16.411 177.189 16.459C176.629 16.491 176.085 16.683 175.557 17.035C175.029 17.387 174.629 17.827 174.357 18.355C174.101 18.867 173.973 19.427 173.973 20.035C173.973 20.627 174.085 21.259 174.309 21.931C174.549 22.587 174.893 23.243 175.341 23.899Z" fill="#DEC863"/>
<path d="M188.142 27.739V16.579L190.062 16.003V27.739H188.142ZM186.222 27.739L186.342 27.283C186.47 27.363 186.59 27.427 186.702 27.475C186.814 27.523 186.95 27.547 187.11 27.547C187.27 27.547 187.406 27.523 187.518 27.475C187.63 27.411 187.742 27.315 187.854 27.187C187.934 27.075 187.998 26.955 188.046 26.827C188.11 26.683 188.142 26.499 188.142 26.275C188.142 26.051 188.23 25.955 188.406 25.987C188.582 26.019 188.806 26.075 189.078 26.155C189.35 26.075 189.582 26.019 189.774 25.987C189.966 25.955 190.062 26.051 190.062 26.275C190.062 26.675 190.15 26.987 190.326 27.211C190.518 27.435 190.774 27.547 191.094 27.547C191.238 27.547 191.366 27.523 191.478 27.475C191.606 27.427 191.734 27.363 191.862 27.283L191.982 27.739H186.222ZM190.062 15.739V16.555C189.966 16.651 189.83 16.787 189.654 16.963C189.478 17.123 189.294 17.299 189.102 17.491C188.91 17.683 188.726 17.875 188.55 18.067C188.374 18.243 188.238 18.395 188.142 18.523C188.142 18.027 188.038 17.659 187.83 17.419C187.622 17.163 187.358 17.035 187.038 17.035C186.862 17.035 186.718 17.059 186.606 17.107C186.51 17.139 186.422 17.171 186.342 17.203L186.246 16.819C186.678 16.819 187.238 16.747 187.926 16.603C188.614 16.459 189.326 16.171 190.062 15.739ZM190.062 19.747V18.091C190.142 17.723 190.286 17.395 190.494 17.107C190.702 16.803 190.942 16.547 191.214 16.339C191.502 16.131 191.814 15.979 192.15 15.883C192.502 15.771 192.846 15.715 193.182 15.715C194.19 15.715 195.006 15.947 195.63 16.411C196.254 16.859 196.678 17.467 196.902 18.235L195.102 18.859C195.022 18.091 194.782 17.499 194.382 17.083C193.982 16.651 193.43 16.435 192.726 16.435C192.422 16.435 192.11 16.499 191.79 16.627C191.47 16.755 191.182 16.955 190.926 17.227C190.67 17.499 190.462 17.843 190.302 18.259C190.142 18.675 190.062 19.171 190.062 19.747Z" fill="#DEC863"/>
<path d="M199.707 20.155C199.707 21.083 199.867 21.955 200.187 22.771C200.523 23.587 200.955 24.307 201.483 24.931C202.011 25.539 202.595 26.027 203.235 26.395C203.891 26.747 204.539 26.923 205.179 26.923C206.187 26.923 207.035 26.675 207.723 26.179C208.411 25.667 208.875 24.907 209.115 23.899H210.099C209.891 24.475 209.595 25.003 209.211 25.483C208.843 25.947 208.403 26.355 207.891 26.707C207.395 27.043 206.851 27.307 206.259 27.499C205.667 27.691 205.051 27.787 204.411 27.787C203.579 27.787 202.795 27.627 202.059 27.307C201.323 26.987 200.675 26.555 200.115 26.011C199.571 25.451 199.139 24.803 198.819 24.067C198.499 23.331 198.339 22.547 198.339 21.715C198.339 20.883 198.499 20.099 198.819 19.363C199.139 18.627 199.571 17.987 200.115 17.443C200.675 16.883 201.323 16.443 202.059 16.123C202.795 15.803 203.579 15.643 204.411 15.643C205.211 15.643 205.939 15.747 206.595 15.955C207.251 16.163 207.819 16.451 208.299 16.819C208.795 17.171 209.195 17.595 209.499 18.091C209.819 18.587 210.035 19.123 210.147 19.699C210.147 19.715 210.027 19.723 209.787 19.723C209.547 19.723 209.291 19.723 209.019 19.723C208.683 19.723 208.299 19.715 207.867 19.699C207.787 19.187 207.611 18.731 207.339 18.331C207.083 17.915 206.771 17.555 206.403 17.251C206.035 16.947 205.619 16.715 205.155 16.555C204.691 16.395 204.219 16.315 203.739 16.315C203.163 16.315 202.627 16.419 202.131 16.627C201.651 16.819 201.227 17.091 200.859 17.443C200.507 17.795 200.227 18.203 200.019 18.667C199.811 19.131 199.707 19.627 199.707 20.155ZM199.275 19.699V19.195H209.811L210.147 19.699H199.275Z" fill="#DEC863"/>
<path d="M24.515 55.0356C24.9971 54.8273 25.4554 54.5951 25.8898 54.3391C26.7528 53.8212 27.5206 53.2259 28.1872 52.5472C30.5084 50.1839 31.4309 47.0169 30.2763 44.338C30.1156 43.9809 29.937 43.6415 29.7168 43.3201C28.3836 41.4032 27.8777 38.391 30.7048 36.2181C30.7286 36.1943 30.7703 36.1705 30.8298 36.1348C30.8714 36.0991 30.9131 36.0693 30.9726 36.0276C31.1631 35.9086 31.4488 35.7359 31.8059 35.5097C31.8713 35.4681 31.9368 35.4264 32.0142 35.3847C32.7105 34.9501 33.6807 34.3667 34.8591 33.6702C34.9781 33.5929 35.1031 33.5214 35.2162 33.4559C37.8945 31.8546 41.5667 29.6817 45.7329 27.2469C46.0424 27.0624 46.3578 26.8779 46.6733 26.6874C49.4289 25.0741 52.375 23.3418 55.3747 21.5916C55.583 21.4666 55.7973 21.3416 56.0056 21.2225C56.94 20.6748 57.8804 20.1212 58.8267 19.5676C59.4516 19.1985 60.0765 18.8353 60.7015 18.4782C61.0169 18.2877 61.3443 18.1031 61.6597 17.9186C61.868 17.7936 62.0763 17.6685 62.2846 17.5495C64.2428 16.4065 66.1652 15.2873 68.0221 14.192C68.2245 14.0848 68.4149 13.9658 68.6113 13.8527C69.385 13.4002 70.1588 12.9538 70.9087 12.5132C71.2241 12.3287 71.5396 12.1441 71.8491 11.9656C71.9145 11.9298 71.974 11.9001 72.0336 11.8584C72.2181 11.7572 72.4026 11.65 72.5811 11.5429C72.8906 11.3703 73.1941 11.1857 73.4977 11.0071C74.0393 10.6916 74.563 10.3821 75.0808 10.0844C75.1285 10.0606 75.182 10.0368 75.2237 10.0011C75.3963 9.89986 75.5629 9.79866 75.7296 9.70937C76.0212 9.54268 76.3129 9.376 76.5926 9.20931C76.7533 9.10811 76.9199 9.01882 77.0747 8.92357C77.4318 8.71521 77.7829 8.50686 78.1222 8.31041C78.5447 8.06633 78.9614 7.82821 79.3542 7.59605C79.6458 7.42936 79.9196 7.26268 80.1934 7.10195C80.7409 6.78644 81.2587 6.48879 81.7408 6.20304C81.8718 6.12565 82.0146 6.04231 82.1515 5.95897C82.3658 5.83991 82.5741 5.71489 82.7764 5.60179C83.0026 5.47082 83.2169 5.34581 83.4252 5.22079C83.6097 5.11959 83.7942 5.01244 83.9608 4.91124C84.0501 4.86361 84.1513 4.80408 84.2465 4.74455C84.8298 4.41118 85.2881 4.1433 85.6214 3.94685C85.8059 3.83969 85.9546 3.75635 86.0558 3.69682C86.0796 3.67896 86.1034 3.67301 86.1213 3.65515L35.8054 28.1339C35.3888 28.3363 35.0793 28.6935 34.9424 29.1221L33.9663 32.0451L22.1343 38.9863L17.6705 41.6116C17.4622 41.7187 17.2539 41.8378 17.0634 41.9628C16.9027 42.0521 16.748 42.1533 16.5992 42.2604C16.5397 42.2962 16.4921 42.3259 16.4385 42.3676C16.3314 42.445 16.2242 42.5164 16.1112 42.5998C15.9862 42.6891 15.8612 42.7843 15.7422 42.8915C15.5934 43.0105 15.4505 43.1355 15.3077 43.2665C13.9031 44.5404 12.927 46.0882 12.5044 47.6896C12.4628 47.8503 12.427 48.017 12.3973 48.1837C12.3735 48.273 12.3556 48.3682 12.3497 48.4575C12.3318 48.5825 12.314 48.7016 12.308 48.8266C12.2068 49.8743 12.3497 50.9221 12.7722 51.9103C13.0579 52.5592 13.4388 53.1426 13.9209 53.6486C14.04 53.7736 14.1649 53.8986 14.2899 54.0176C14.6708 54.3689 15.1053 54.6844 15.5815 54.9404C15.8909 55.113 16.2242 55.2678 16.5635 55.3987C16.9146 55.5416 17.2717 55.6488 17.6348 55.7321C18.0038 55.8214 18.3728 55.8928 18.7597 55.9405C20.575 56.1548 22.5807 55.875 24.515 55.0416V55.0356ZM23.7413 52.9402C23.2651 53.1485 22.783 53.3152 22.301 53.4402C21.9855 53.5235 21.6701 53.589 21.3546 53.6426C21.057 53.6902 20.7535 53.7259 20.4559 53.7438C20.4381 53.7438 20.4202 53.7498 20.4083 53.7438C18.7418 53.8331 17.2182 53.4342 16.1231 52.6187C15.9207 52.4699 15.7422 52.3091 15.5755 52.1365C15.4029 51.9639 15.2482 51.7674 15.1113 51.571C14.9803 51.3626 14.8613 51.1483 14.7601 50.9221C13.5698 48.1718 15.6767 44.6178 19.4441 42.9867C19.9203 42.7784 20.4024 42.6117 20.8844 42.4867C21.1761 42.4093 21.4677 42.3557 21.7474 42.3021L21.8962 42.2783C22.1819 42.2366 22.4617 42.2128 22.7354 42.189H22.783C23.8782 42.1354 24.8959 42.3021 25.7827 42.6474C26.2469 42.826 26.6814 43.0343 27.0564 43.3141C27.6575 43.7666 28.1277 44.3321 28.4193 45.0107C29.6097 47.767 27.5147 51.315 23.7353 52.9461L23.7413 52.9402Z" fill="url(#paint0_linear_258_327)"/>
<path d="M19.1051 42.2009C14.7425 44.082 12.3142 48.1956 13.695 51.3685C15.0699 54.5474 19.7122 55.6011 24.0867 53.714C28.4493 51.8209 30.8717 47.7193 29.4968 44.5404C28.122 41.3615 23.4677 40.3078 19.1051 42.2009ZM28.4315 44.9988C29.6218 47.7491 27.5268 51.303 23.7475 52.9342C19.9741 54.5653 15.9448 53.6664 14.7544 50.9101C13.5641 48.1598 15.671 44.6059 19.4384 42.9748C23.2178 41.3436 27.2471 42.2485 28.4315 44.9988Z" fill="url(#paint1_linear_258_327)"/>
<path d="M33.9663 32.0451L86.1213 3.65516L86.1629 3.63135L35.7994 28.128C35.3888 28.3244 35.0793 28.6816 34.9364 29.1162L33.9663 32.0391V32.0451Z" fill="url(#paint2_linear_258_327)"/>
<path d="M12.4152 50.7316C12.4152 50.7316 11.6593 52.3329 9.86784 53.2556C6.88603 54.7915 4.78507 54.1307 4.63033 54.607C4.50534 54.9999 5.64807 55.4761 8.14779 55.1666C10.2547 54.9046 13.4686 53.0949 13.4686 53.0949L13.3258 50.7316H12.4152Z" fill="url(#paint3_linear_258_327)"/>
<path d="M159.566 42.6355C159.06 43.4153 147.686 59.923 105.75 47.767C89.5079 43.0641 65.7248 31.17 48.0363 26.7409C31.5857 22.6274 13.5996 25.8837 0.00585938 37.2182C0.333204 36.7122 10.963 20.5557 37.216 20.4962C63.1239 20.4486 85.9904 36.4384 114.779 44.1594C131.652 48.6897 150.126 49.3386 159.572 42.6355H159.566Z" fill="url(#paint4_linear_258_327)"/>
<path d="M159.566 42.6415C159.06 43.4153 147.686 59.9171 105.75 47.761C89.5079 43.0582 65.7248 31.164 48.0363 26.735C31.5857 22.6215 13.5996 25.8778 0.00585938 37.2123C0.446287 36.7301 14.9506 19.9069 44.3938 23.3061C72.9442 26.604 92.4897 43.9511 122.617 48.4933C151.126 52.7973 159.167 43.1236 159.578 42.6415H159.566Z" fill="url(#paint5_linear_258_327)"/>
<path d="M86.169 52.3747C84.5442 51.4281 32.5499 21.2047 30.7049 19.7879C27.8778 17.615 28.3837 14.6028 29.7169 12.6859C29.9312 12.3704 30.1216 12.0311 30.2764 11.6739C31.925 7.85207 29.3479 3.0599 24.5151 0.970387C19.6883 -1.11912 14.4269 0.28579 12.7783 4.10763C11.2309 7.69134 13.4032 12.1323 17.6706 14.3944C18.1051 14.6504 18.3848 15.1028 18.4265 15.6029L18.4503 15.9363C18.4801 16.3351 18.7062 16.6982 19.0514 16.9007L19.1288 16.9423C19.4085 17.109 19.7418 17.1566 20.0573 17.0792L20.9857 16.8471C21.3785 16.7459 21.7892 16.8054 22.1404 17.0138L33.9724 23.9609L34.9425 26.8839C35.0854 27.3184 35.3949 27.6756 35.8055 27.8721L86.169 52.3747ZM19.4383 13.0312C15.6649 11.4001 13.5639 7.84612 14.7543 5.08987C15.9446 2.33958 19.968 1.42877 23.7473 3.06585C27.5207 4.70293 29.6217 8.25092 28.4313 11.0072C27.241 13.7575 23.2176 14.6683 19.4383 13.0312Z" fill="url(#paint6_linear_258_327)"/>
<path d="M29.4968 11.4596C30.8717 8.28073 28.4493 4.17315 24.0867 2.28605C19.7182 0.404896 15.0699 1.45263 13.695 4.63154C12.3142 7.80449 14.7425 11.918 19.1051 13.7992C23.4677 15.6922 28.122 14.6386 29.4968 11.4596ZM19.4384 13.0253C15.665 11.3942 13.5641 7.84021 14.7544 5.08992C15.9448 2.33367 19.9741 1.43477 23.7475 3.06589C27.5268 4.69702 29.6218 8.25097 28.4315 11.0013C27.2471 13.7516 23.2178 14.6564 19.4384 13.0253Z" fill="url(#paint7_linear_258_327)"/>
<path d="M40.3405 29.0507C40.9178 29.0507 41.388 28.5804 41.388 28.0029C41.388 27.4255 40.9178 26.9552 40.3405 26.9552C39.7632 26.9552 39.293 27.4255 39.293 28.0029C39.293 28.5804 39.7632 29.0507 40.3405 29.0507Z" fill="url(#paint8_linear_258_327)"/>
<path d="M40.3404 28.6994C40.7273 28.6994 41.0367 28.3898 41.0367 28.0029C41.0367 27.616 40.7213 27.3064 40.3404 27.3064C39.9595 27.3064 39.644 27.616 39.644 28.0029C39.644 28.3898 39.9535 28.6994 40.3404 28.6994Z" fill="url(#paint9_linear_258_327)"/>
<path d="M60.624 21.8475C60.624 21.8475 72.0692 25.3836 84.7642 30.4854C97.4592 35.5871 128.146 49.0588 147.858 44.2606C155.899 42.3021 159.833 38.3314 161.268 34.4441C163.607 28.0982 159.583 24.1394 159.583 24.1394C159.583 24.1394 164.125 31.3902 155.179 38.3314C149.144 43.0105 134.473 43.0164 117.963 38.9208C101.631 34.8727 77.3841 22.8715 60.63 21.8535L60.624 21.8475Z" fill="url(#paint10_linear_258_327)"/>
<defs>
<linearGradient id="paint0_linear_258_327" x1="88.5437" y1="11.0786" x2="6.12246" y2="54.1518" gradientUnits="userSpaceOnUse">
<stop stop-color="#FCE95F"/>
<stop offset="0.49" stop-color="#FFEE95"/>
<stop offset="0.77" stop-color="#A14400"/>
<stop offset="1" stop-color="#FFA506"/>
</linearGradient>
<linearGradient id="paint1_linear_258_327" x1="21.5929" y1="54.6546" x2="21.5929" y2="41.2603" gradientUnits="userSpaceOnUse">
<stop stop-color="#AA540E"/>
<stop offset="0.62" stop-color="#FFEE95"/>
<stop offset="1" stop-color="#FCE95F"/>
</linearGradient>
<linearGradient id="paint2_linear_258_327" x1="60.0587" y1="3.63135" x2="60.0587" y2="32.0451" gradientUnits="userSpaceOnUse">
<stop stop-color="#FCE95F"/>
<stop offset="0.49" stop-color="#FFEE95"/>
<stop offset="0.77" stop-color="#A14400"/>
<stop offset="1" stop-color="#FFA506"/>
</linearGradient>
<linearGradient id="paint3_linear_258_327" x1="89.0317" y1="12.0072" x2="6.6046" y2="55.0805" gradientUnits="userSpaceOnUse">
<stop stop-color="#FCE95F"/>
<stop offset="0.49" stop-color="#FFEE95"/>
<stop offset="0.77" stop-color="#A14400"/>
<stop offset="1" stop-color="#FFA506"/>
</linearGradient>
<linearGradient id="paint4_linear_258_327" x1="22.4022" y1="-12.7097" x2="124.072" y2="80.5045" gradientUnits="userSpaceOnUse">
<stop stop-color="#FFA506"/>
<stop offset="0.51" stop-color="#FFEE95"/>
<stop offset="1" stop-color="#FCE95F"/>
</linearGradient>
<linearGradient id="paint5_linear_258_327" x1="22.5986" y1="-12.5251" x2="124.072" y2="80.5105" gradientUnits="userSpaceOnUse">
<stop stop-color="#FFA506"/>
<stop offset="0.38" stop-color="#A14400"/>
<stop offset="1" stop-color="#FCE95F"/>
</linearGradient>
<linearGradient id="paint6_linear_258_327" x1="49.2207" y1="4.59477e-05" x2="49.2207" y2="52.3806" gradientUnits="userSpaceOnUse">
<stop stop-color="#FCE95F"/>
<stop offset="0.49" stop-color="#FFEE95"/>
<stop offset="0.77" stop-color="#A14400"/>
<stop offset="1" stop-color="#FFA506"/>
</linearGradient>
<linearGradient id="paint7_linear_258_327" x1="21.5929" y1="1.35143" x2="21.5929" y2="14.7457" gradientUnits="userSpaceOnUse">
<stop stop-color="#FCE95F"/>
<stop offset="0.53" stop-color="#FFEE95"/>
<stop offset="1" stop-color="#FFA506"/>
</linearGradient>
<linearGradient id="paint8_linear_258_327" x1="39.4775" y1="27.1397" x2="41.1384" y2="28.8003" gradientUnits="userSpaceOnUse">
<stop stop-color="#FCE95F"/>
<stop offset="0.49" stop-color="#FFEE95"/>
<stop offset="0.77" stop-color="#A14400"/>
<stop offset="1" stop-color="#FFA506"/>
</linearGradient>
<linearGradient id="paint9_linear_258_327" x1="39.769" y1="27.4314" x2="40.8703" y2="28.5325" gradientUnits="userSpaceOnUse">
<stop stop-color="#A14400"/>
<stop offset="1" stop-color="#FFEE95"/>
</linearGradient>
<linearGradient id="paint10_linear_258_327" x1="74.0571" y1="-10.0666" x2="143.92" y2="53.9906" gradientUnits="userSpaceOnUse">
<stop stop-color="#FFA506"/>
<stop offset="0.23" stop-color="#A14400"/>
<stop offset="0.51" stop-color="#FFEE95"/>
<stop offset="1" stop-color="#FCE95F"/>
</linearGradient>
</defs>
</svg>
