<svg width="229" height="61" viewBox="0 0 229 61" fill="none" xmlns="http://www.w3.org/2000/svg">
<path d="M97.4284 11.8468L97.2981 12.3428C97.159 12.2558 97.0287 12.1861 96.907 12.1339C96.7854 12.0817 96.6376 12.0556 96.4638 12.0556C96.0467 12.0556 95.7251 12.1948 95.4992 12.4733C95.2732 12.7344 95.2472 13.1172 95.421 13.6219L99.9313 27.0922C99.7748 27.5447 99.6358 27.9711 99.5141 28.3714C99.3925 28.7195 99.2708 29.0763 99.1491 29.4417C99.0448 29.7898 98.9666 30.0595 98.9145 30.251L93.2571 13.4392C93.118 13.0215 92.979 12.6908 92.8399 12.4472C92.7183 12.1861 92.4836 12.0556 92.136 12.0556C91.9796 12.0556 91.8319 12.0817 91.6928 12.1339C91.5711 12.1861 91.4408 12.2558 91.3017 12.3428L91.1714 11.8468H97.4284ZM106.605 11.8729L106.475 12.3428C106.336 12.2558 106.206 12.1948 106.084 12.16C105.962 12.1078 105.823 12.0817 105.667 12.0817C105.371 12.0817 105.128 12.1774 104.937 12.3689C104.746 12.5603 104.581 12.8823 104.442 13.3348L103.816 13.6219L104.259 11.8729H106.605ZM103.868 13.387L104.833 12.1339L99.5402 28.2931H99.2534L103.868 13.387ZM102.173 11.8729H104.911L104.311 13.5958L103.868 13.387C104.007 12.9345 103.99 12.6038 103.816 12.395C103.642 12.1861 103.407 12.0817 103.112 12.0817C102.921 12.0817 102.756 12.1165 102.617 12.1861C102.478 12.2558 102.373 12.308 102.304 12.3428L102.173 11.8729Z" fill="#DEC863"/>
<path d="M108.701 23.6203C108.701 22.7153 108.875 21.8625 109.223 21.0619C109.57 20.2614 110.039 19.5652 110.63 18.9735C111.239 18.3644 111.943 17.8858 112.742 17.5377C113.542 17.1897 114.393 17.0156 115.297 17.0156C116.201 17.0156 117.053 17.1897 117.852 17.5377C118.669 17.8858 119.373 18.3644 119.964 18.9735C120.572 19.5652 121.05 20.2614 121.398 21.0619C121.745 21.8625 121.919 22.7153 121.919 23.6203C121.919 24.5252 121.745 25.378 121.398 26.1786C121.05 26.9791 120.572 27.684 119.964 28.2931C119.373 28.8848 118.669 29.3547 117.852 29.7028C117.053 30.0508 116.201 30.2249 115.297 30.2249C114.393 30.2249 113.542 30.0508 112.742 29.7028C111.943 29.3547 111.239 28.8848 110.63 28.2931C110.039 27.684 109.57 26.9791 109.223 26.1786C108.875 25.378 108.701 24.5252 108.701 23.6203ZM111.673 25.9958C112.16 26.7094 112.69 27.3272 113.264 27.8493C113.855 28.354 114.463 28.7369 115.089 28.9979C115.714 29.2416 116.34 29.346 116.966 29.3112C117.609 29.259 118.217 29.0414 118.791 28.6586C119.364 28.2757 119.781 27.8058 120.042 27.2489C120.303 26.6746 120.424 26.0567 120.407 25.3954C120.407 24.7341 120.277 24.0379 120.016 23.307C119.755 22.576 119.382 21.8451 118.895 21.1141C118.408 20.4006 117.878 19.7915 117.305 19.2868C116.731 18.7821 116.14 18.4166 115.532 18.1904C114.923 17.9467 114.306 17.851 113.681 17.9032C113.072 17.938 112.481 18.1468 111.908 18.5297C111.334 18.9126 110.9 19.3912 110.604 19.9655C110.326 20.5224 110.187 21.1315 110.187 21.7929C110.187 22.4368 110.309 23.1243 110.552 23.8552C110.813 24.5687 111.187 25.2823 111.673 25.9958Z" fill="#DEC863"/>
<path d="M125.579 30.1727V12.7866L127.665 12.16V30.1727H125.579ZM123.493 30.1727L123.624 29.6767C123.763 29.7637 123.893 29.8333 124.015 29.8855C124.136 29.9377 124.284 29.9638 124.458 29.9638C124.632 29.9638 124.78 29.9377 124.901 29.8855C125.023 29.8159 125.145 29.7115 125.266 29.5723C125.353 29.4504 125.423 29.3199 125.475 29.1807C125.544 29.024 125.579 28.8239 125.579 28.5802C125.579 28.3366 125.675 28.2322 125.866 28.267C126.057 28.3018 126.3 28.3627 126.596 28.4497C126.891 28.3627 127.143 28.3018 127.352 28.267C127.56 28.2322 127.665 28.3366 127.665 28.5802C127.665 29.0153 127.76 29.3547 127.952 29.5984C128.16 29.842 128.438 29.9638 128.786 29.9638C128.942 29.9638 129.081 29.9377 129.203 29.8855C129.342 29.8333 129.481 29.7637 129.62 29.6767L129.75 30.1727H123.493ZM127.665 11.8729V12.7605C127.56 12.8649 127.413 13.0128 127.222 13.2043C127.03 13.3783 126.83 13.5697 126.622 13.7786C126.413 13.9874 126.213 14.1963 126.022 14.4051C125.831 14.5965 125.683 14.7619 125.579 14.9011C125.579 14.3616 125.466 13.9613 125.24 13.7003C125.014 13.4218 124.727 13.2826 124.38 13.2826C124.189 13.2826 124.032 13.3087 123.911 13.3609C123.806 13.3957 123.711 13.4305 123.624 13.4653L123.519 13.0476C123.989 13.0476 124.597 12.9693 125.344 12.8127C126.092 12.656 126.865 12.3428 127.665 11.8729Z" fill="#DEC863"/>
<path d="M131.31 23.6203C131.31 22.7153 131.483 21.8625 131.831 21.0619C132.179 20.2614 132.648 19.5652 133.239 18.9735C133.847 18.3644 134.551 17.8858 135.351 17.5377C136.15 17.1897 137.002 17.0156 137.906 17.0156C138.809 17.0156 139.661 17.1897 140.461 17.5377C141.277 17.8858 141.981 18.3644 142.572 18.9735C143.181 19.5652 143.659 20.2614 144.006 21.0619C144.354 21.8625 144.528 22.7153 144.528 23.6203C144.528 24.5252 144.354 25.378 144.006 26.1786C143.659 26.9791 143.181 27.684 142.572 28.2931C141.981 28.8848 141.277 29.3547 140.461 29.7028C139.661 30.0508 138.809 30.2249 137.906 30.2249C137.002 30.2249 136.15 30.0508 135.351 29.7028C134.551 29.3547 133.847 28.8848 133.239 28.2931C132.648 27.684 132.179 26.9791 131.831 26.1786C131.483 25.378 131.31 24.5252 131.31 23.6203ZM134.282 25.9958C134.768 26.7094 135.299 27.3272 135.872 27.8493C136.463 28.354 137.071 28.7369 137.697 28.9979C138.323 29.2416 138.948 29.346 139.574 29.3112C140.217 29.259 140.826 29.0414 141.399 28.6586C141.973 28.2757 142.39 27.8058 142.651 27.2489C142.911 26.6746 143.033 26.0567 143.016 25.3954C143.016 24.7341 142.885 24.0379 142.624 23.307C142.364 22.576 141.99 21.8451 141.503 21.1141C141.017 20.4006 140.487 19.7915 139.913 19.2868C139.34 18.7821 138.749 18.4166 138.14 18.1904C137.532 17.9467 136.915 17.851 136.289 17.9032C135.681 17.938 135.09 18.1468 134.516 18.5297C133.943 18.9126 133.508 19.3912 133.213 19.9655C132.935 20.5224 132.796 21.1315 132.796 21.7929C132.796 22.4368 132.917 23.1243 133.161 23.8552C133.421 24.5687 133.795 25.2823 134.282 25.9958Z" fill="#DEC863"/>
<path d="M148.996 29.4939C149.604 29.5287 150.195 29.4765 150.769 29.3373C151.36 29.1981 151.829 28.9283 152.176 28.528C152.437 28.2322 152.602 27.9276 152.672 27.6144C152.741 27.2837 152.741 26.9617 152.672 26.6485C152.62 26.3352 152.498 26.0393 152.307 25.7609C152.116 25.465 151.881 25.2214 151.603 25.0299C151.325 24.8385 150.986 24.6471 150.586 24.4556C150.186 24.2468 149.778 24.0292 149.361 23.803C148.961 23.5767 148.57 23.3418 148.188 23.0981C147.823 22.8545 147.536 22.5934 147.327 22.315C146.91 21.7755 146.684 21.1838 146.649 20.5398C146.632 19.8785 146.754 19.2694 147.014 18.7125C147.292 18.1381 147.692 17.6595 148.214 17.2767C148.752 16.8938 149.361 16.7024 150.039 16.7024C150.456 16.7024 150.821 16.7546 151.134 16.859C151.464 16.9634 151.751 17.0765 151.994 17.1984C152.255 17.355 152.489 17.529 152.698 17.7205L151.811 21.584L151.316 21.3752C151.386 21.3056 151.446 21.2012 151.499 21.0619C151.568 20.9227 151.629 20.7748 151.681 20.6181C151.733 20.4615 151.777 20.3136 151.811 20.1744C151.846 20.0177 151.872 19.8959 151.89 19.8089C151.959 19.4086 151.951 19.0605 151.864 18.7647C151.777 18.4514 151.638 18.1991 151.446 18.0076C151.273 17.8162 151.055 17.6683 150.795 17.5638C150.534 17.4594 150.265 17.4072 149.986 17.4072C149.535 17.3898 149.083 17.4768 148.631 17.6683C148.179 17.8597 147.866 18.2426 147.692 18.8169C147.466 19.6 147.536 20.2353 147.901 20.7226C148.266 21.1925 148.752 21.5927 149.361 21.9234C149.986 22.2541 150.63 22.5325 151.29 22.7588C151.968 22.985 152.489 23.2461 152.854 23.5419C153.167 23.7856 153.419 24.1075 153.61 24.5078C153.802 24.8907 153.897 25.3171 153.897 25.787C153.915 26.2569 153.828 26.7616 153.636 27.3011C153.445 27.8232 153.115 28.3366 152.646 28.8413C152.229 29.2938 151.707 29.6506 151.081 29.9116C150.456 30.1553 149.743 30.2771 148.944 30.2771C148.457 30.2771 148.04 30.2336 147.692 30.1466C147.345 30.077 147.049 29.9986 146.806 29.9116C146.528 29.8072 146.293 29.6854 146.102 29.5461L146.988 25.8131L147.51 26.0741C147.44 26.1438 147.371 26.2482 147.301 26.3874C147.232 26.5266 147.162 26.6746 147.093 26.8312C147.04 26.9878 146.997 27.1358 146.962 27.275C146.927 27.4142 146.901 27.5273 146.884 27.6144C146.815 27.9624 146.832 28.2583 146.936 28.5019C147.04 28.7282 147.197 28.9109 147.405 29.0501C147.614 29.1894 147.857 29.2938 148.135 29.3634C148.431 29.433 148.718 29.4765 148.996 29.4939Z" fill="#DEC863"/>
<path d="M166.884 29.4417C167.77 29.4939 168.639 29.3895 169.491 29.1285C170.342 28.85 171.012 28.4323 171.498 27.8754C171.863 27.4751 172.089 27.04 172.176 26.5701C172.263 26.1003 172.246 25.6391 172.124 25.1866C172.02 24.7341 171.82 24.3077 171.524 23.9074C171.246 23.5071 170.916 23.1678 170.534 22.8893C170.151 22.6108 169.682 22.315 169.126 22.0017C168.587 21.6711 168.031 21.323 167.457 20.9575C166.901 20.592 166.371 20.2179 165.867 19.835C165.363 19.4347 164.954 19.0344 164.641 18.6341C164.051 17.8684 163.729 17.0591 163.677 16.2064C163.625 15.3362 163.781 14.5356 164.146 13.8047C164.529 13.0737 165.076 12.4733 165.789 12.0034C166.519 11.5161 167.362 11.2725 168.317 11.2725C168.908 11.2725 169.43 11.3421 169.882 11.4813C170.351 11.6205 170.742 11.7685 171.055 11.9251C171.437 12.1165 171.776 12.3341 172.072 12.5777L170.82 18.0337L170.247 17.7727C170.351 17.6683 170.447 17.5203 170.534 17.3289C170.62 17.12 170.699 16.9112 170.768 16.7024C170.855 16.4761 170.925 16.2586 170.977 16.0497C171.029 15.8235 171.064 15.6494 171.081 15.5276C171.185 14.9533 171.177 14.4573 171.055 14.0396C170.933 13.6045 170.733 13.2478 170.455 12.9693C170.177 12.6734 169.847 12.4559 169.465 12.3167C169.082 12.16 168.683 12.0643 168.265 12.0295C167.9 11.9947 167.535 12.0034 167.17 12.0556C166.823 12.1078 166.493 12.2123 166.18 12.3689C165.867 12.5081 165.589 12.7083 165.345 12.9693C165.102 13.2304 164.92 13.5697 164.798 13.9874C164.589 14.7184 164.563 15.371 164.72 15.9453C164.876 16.5022 165.146 17.0069 165.528 17.4594C165.928 17.9119 166.406 18.3122 166.962 18.6603C167.518 19.0083 168.083 19.3303 168.656 19.6261C169.247 19.922 169.804 20.2005 170.325 20.4615C170.864 20.7226 171.298 20.9836 171.629 21.2447C172.08 21.5927 172.471 22.0191 172.802 22.5238C173.149 23.0285 173.367 23.5854 173.454 24.1946C173.558 24.8037 173.506 25.4563 173.297 26.1525C173.089 26.8312 172.654 27.5273 171.994 28.2409C171.403 28.8674 170.664 29.3634 169.777 29.7289C168.908 30.0944 167.918 30.2771 166.805 30.2771C166.128 30.2771 165.537 30.2249 165.033 30.1205C164.529 30.016 164.111 29.8942 163.781 29.755C163.399 29.6158 163.069 29.4504 162.79 29.259L164.016 23.9857L164.589 24.2468C164.485 24.3512 164.389 24.5078 164.303 24.7167C164.216 24.9081 164.129 25.117 164.042 25.3432C163.972 25.552 163.911 25.7696 163.859 25.9958C163.807 26.2047 163.772 26.37 163.755 26.4918C163.651 27.0661 163.677 27.5447 163.833 27.9276C164.007 28.2931 164.25 28.589 164.563 28.8152C164.876 29.024 165.241 29.172 165.658 29.259C166.075 29.346 166.484 29.4069 166.884 29.4417Z" fill="#DEC863"/>
<path d="M175.689 18.8169V18.2687H181.685V18.8169H175.689ZM181.607 30.1466C181.12 30.164 180.642 30.0944 180.173 29.9377C179.704 29.7811 179.278 29.5374 178.896 29.2068C178.531 28.8761 178.226 28.4584 177.983 27.9537C177.757 27.4316 177.644 26.8225 177.644 26.1264H179.73C179.695 27.0835 179.912 27.8754 180.382 28.5019C180.851 29.1111 181.433 29.4156 182.128 29.4156C182.354 29.4156 182.641 29.3895 182.989 29.3373C183.336 29.2677 183.658 29.1285 183.953 28.9196C184.266 28.7108 184.51 28.4062 184.683 28.0059C184.857 27.5882 184.883 27.04 184.762 26.3613C184.744 26.2395 184.709 26.0741 184.657 25.8653C184.605 25.6391 184.536 25.4215 184.449 25.2127C184.379 24.9864 184.301 24.7776 184.214 24.5861C184.127 24.3773 184.032 24.2207 183.927 24.1163L184.501 23.8552L185.935 30.1466H181.607ZM177.644 26.1264V13.6219L179.73 11.8729V26.1264H177.644ZM179.73 11.8729V12.7605C179.626 12.8649 179.478 13.0128 179.287 13.2043C179.096 13.3783 178.896 13.5697 178.687 13.7786C178.479 13.9874 178.279 14.1963 178.087 14.4051C177.896 14.5965 177.749 14.7619 177.644 14.9011C177.644 14.3616 177.531 13.9613 177.305 13.7003C177.079 13.4218 176.793 13.2826 176.445 13.2826C176.254 13.2826 176.097 13.3087 175.976 13.3609C175.871 13.3957 175.776 13.4305 175.689 13.4653L175.585 13.0476C176.245 13.0476 176.949 12.9432 177.696 12.7344C178.444 12.5255 179.122 12.2384 179.73 11.8729Z" fill="#DEC863"/>
<path d="M187.5 23.6203C187.5 22.7153 187.674 21.8625 188.021 21.0619C188.369 20.2614 188.838 19.5652 189.429 18.9735C190.037 18.3644 190.741 17.8858 191.541 17.5377C192.34 17.1897 193.192 17.0156 194.096 17.0156C195 17.0156 195.851 17.1897 196.651 17.5377C197.468 17.8858 198.172 18.3644 198.763 18.9735C199.371 19.5652 199.849 20.2614 200.197 21.0619C200.544 21.8625 200.718 22.7153 200.718 23.6203C200.718 24.5252 200.544 25.378 200.197 26.1786C199.849 26.9791 199.371 27.684 198.763 28.2931C198.172 28.8848 197.468 29.3547 196.651 29.7028C195.851 30.0508 195 30.2249 194.096 30.2249C193.192 30.2249 192.34 30.0508 191.541 29.7028C190.741 29.3547 190.037 28.8848 189.429 28.2931C188.838 27.684 188.369 26.9791 188.021 26.1786C187.674 25.378 187.5 24.5252 187.5 23.6203ZM190.472 25.9958C190.959 26.7094 191.489 27.3272 192.062 27.8493C192.653 28.354 193.262 28.7369 193.887 28.9979C194.513 29.2416 195.139 29.346 195.764 29.3112C196.408 29.259 197.016 29.0414 197.589 28.6586C198.163 28.2757 198.58 27.8058 198.841 27.2489C199.102 26.6746 199.223 26.0567 199.206 25.3954C199.206 24.7341 199.075 24.0379 198.815 23.307C198.554 22.576 198.18 21.8451 197.694 21.1141C197.207 20.4006 196.677 19.7915 196.103 19.2868C195.53 18.7821 194.939 18.4166 194.331 18.1904C193.722 17.9467 193.105 17.851 192.479 17.9032C191.871 17.938 191.28 18.1468 190.707 18.5297C190.133 18.9126 189.699 19.3912 189.403 19.9655C189.125 20.5224 188.986 21.1315 188.986 21.7929C188.986 22.4368 189.108 23.1243 189.351 23.8552C189.612 24.5687 189.985 25.2823 190.472 25.9958Z" fill="#DEC863"/>
<path d="M204.378 30.1727V18.0337L206.464 17.4072V30.1727H204.378ZM202.292 30.1727L202.423 29.6767C202.562 29.7637 202.692 29.8333 202.814 29.8855C202.935 29.9377 203.083 29.9638 203.257 29.9638C203.431 29.9638 203.578 29.9377 203.7 29.8855C203.822 29.8159 203.943 29.7115 204.065 29.5723C204.152 29.4504 204.221 29.3199 204.274 29.1807C204.343 29.024 204.378 28.8239 204.378 28.5802C204.378 28.3366 204.473 28.2322 204.665 28.267C204.856 28.3018 205.099 28.3627 205.395 28.4497C205.69 28.3627 205.942 28.3018 206.151 28.267C206.359 28.2322 206.464 28.3366 206.464 28.5802C206.464 29.0153 206.559 29.3547 206.75 29.5984C206.959 29.842 207.237 29.9638 207.585 29.9638C207.741 29.9638 207.88 29.9377 208.002 29.8855C208.141 29.8333 208.28 29.7637 208.419 29.6767L208.549 30.1727H202.292ZM206.464 17.12V18.0076C206.359 18.112 206.212 18.26 206.02 18.4514C205.829 18.6254 205.629 18.8169 205.421 19.0257C205.212 19.2346 205.012 19.4434 204.821 19.6523C204.63 19.8437 204.482 20.009 204.378 20.1483C204.378 19.6087 204.265 19.2085 204.039 18.9474C203.813 18.669 203.526 18.5297 203.179 18.5297C202.987 18.5297 202.831 18.5558 202.709 18.608C202.605 18.6428 202.509 18.6777 202.423 18.7125L202.318 18.2948C202.788 18.2948 203.396 18.2165 204.143 18.0598C204.891 17.9032 205.664 17.5899 206.464 17.12ZM206.464 21.4796V19.6784C206.55 19.2781 206.707 18.9213 206.933 18.608C207.159 18.2774 207.419 17.9989 207.715 17.7727C208.028 17.5464 208.367 17.3811 208.732 17.2767C209.114 17.1548 209.488 17.0939 209.853 17.0939C210.948 17.0939 211.834 17.3463 212.512 17.851C213.19 18.3383 213.65 18.9996 213.894 19.835L211.938 20.5137C211.852 19.6784 211.591 19.0344 211.156 18.5819C210.722 18.112 210.122 17.8771 209.357 17.8771C209.027 17.8771 208.688 17.9467 208.341 18.0859C207.993 18.2252 207.68 18.4427 207.402 18.7386C207.124 19.0344 206.898 19.4086 206.724 19.8611C206.55 20.3136 206.464 20.8531 206.464 21.4796Z" fill="#DEC863"/>
<path d="M216.941 21.9234C216.941 22.9328 217.115 23.8813 217.462 24.7689C217.827 25.6565 218.297 26.4396 218.87 27.1184C219.444 27.7797 220.078 28.3105 220.774 28.7108C221.486 29.0937 222.19 29.2851 222.885 29.2851C223.98 29.2851 224.901 29.0153 225.649 28.4758C226.396 27.9189 226.9 27.0923 227.161 25.9958H228.23C228.004 26.6224 227.682 27.1967 227.265 27.7188C226.865 28.2235 226.387 28.6673 225.831 29.0501C225.292 29.4156 224.702 29.7028 224.058 29.9116C223.415 30.1205 222.746 30.2249 222.051 30.2249C221.147 30.2249 220.296 30.0508 219.496 29.7028C218.697 29.3547 217.993 28.8848 217.384 28.2931C216.793 27.684 216.324 26.9791 215.976 26.1786C215.629 25.378 215.455 24.5252 215.455 23.6203C215.455 22.7153 215.629 21.8625 215.976 21.0619C216.324 20.2614 216.793 19.5652 217.384 18.9735C217.993 18.3644 218.697 17.8858 219.496 17.5377C220.296 17.1897 221.147 17.0156 222.051 17.0156C222.92 17.0156 223.711 17.1287 224.423 17.355C225.136 17.5812 225.753 17.8945 226.275 18.2948C226.813 18.6777 227.248 19.1388 227.578 19.6784C227.926 20.2179 228.16 20.8009 228.282 21.4274C228.282 21.4448 228.152 21.4535 227.891 21.4535C227.63 21.4535 227.352 21.4535 227.057 21.4535C226.692 21.4535 226.275 21.4448 225.805 21.4274C225.718 20.8705 225.527 20.3745 225.232 19.9394C224.954 19.4869 224.615 19.0953 224.215 18.7647C223.815 18.434 223.363 18.1817 222.859 18.0076C222.355 17.8336 221.842 17.7466 221.321 17.7466C220.695 17.7466 220.113 17.8597 219.574 18.0859C219.053 18.2948 218.592 18.5906 218.192 18.9735C217.81 19.3564 217.506 19.8002 217.28 20.3049C217.054 20.8096 216.941 21.3491 216.941 21.9234ZM216.472 21.4274V20.8792H227.917L228.282 21.4274H216.472Z" fill="#DEC863"/>
<path d="M26.6302 59.8641C27.1539 59.6374 27.6517 59.3849 28.1237 59.1065C29.0611 58.5431 29.8952 57.8956 30.6193 57.1574C33.1407 54.5868 34.1429 51.142 32.8886 48.2281C32.714 47.8396 32.5201 47.4705 32.2809 47.1209C30.8326 45.0359 30.2831 41.7594 33.3541 39.396C33.38 39.37 33.4252 39.3441 33.4899 39.3053C33.5351 39.2664 33.5804 39.2341 33.645 39.1887C33.8519 39.0592 34.1623 38.8715 34.5502 38.6254C34.6213 38.5801 34.6924 38.5347 34.7765 38.4894C35.5329 38.0167 36.5868 37.3822 37.8669 36.6246C37.9962 36.5404 38.132 36.4627 38.2548 36.3915C41.1642 34.6496 45.1533 32.2862 49.679 29.6378C50.0152 29.4371 50.3579 29.2363 50.7006 29.0291C53.694 27.2744 56.8944 25.3901 60.1529 23.4864C60.3792 23.3504 60.6119 23.2144 60.8382 23.0849C61.8533 22.4892 62.8748 21.887 63.9028 21.2848C64.5816 20.8833 65.2605 20.4883 65.9393 20.0998C66.282 19.8926 66.6376 19.6919 66.9803 19.4912C67.2065 19.3552 67.4328 19.2192 67.6591 19.0897C69.7862 17.8465 71.8745 16.6291 73.8917 15.4377C74.1115 15.3211 74.3184 15.1916 74.5318 15.0686C75.3723 14.5765 76.2127 14.0908 77.0274 13.6117C77.37 13.4109 77.7127 13.2102 78.0489 13.016C78.12 12.9771 78.1847 12.9447 78.2493 12.8994C78.4498 12.7893 78.6502 12.6728 78.8441 12.5562C79.1803 12.3684 79.5101 12.1677 79.8398 11.9734C80.4281 11.6303 80.9971 11.2935 81.5596 10.9698C81.6113 10.9439 81.6695 10.918 81.7147 10.8791C81.9022 10.7691 82.0833 10.659 82.2643 10.5618C82.5811 10.3805 82.8979 10.1992 83.2018 10.0179C83.3763 9.90785 83.5574 9.81072 83.7255 9.70712C84.1134 9.48049 84.4948 9.25386 84.8633 9.04017C85.3224 8.77469 85.775 8.51568 86.2017 8.26315C86.5185 8.08184 86.8159 7.90054 87.1133 7.72571C87.7081 7.38252 88.2706 7.05876 88.7943 6.74795C88.9365 6.66377 89.0917 6.57312 89.2404 6.48247C89.4731 6.35296 89.6994 6.21698 89.9192 6.09396C90.1649 5.9515 90.3977 5.81552 90.624 5.67954C90.8244 5.56946 91.0248 5.45291 91.2058 5.34283C91.3028 5.29103 91.4127 5.22628 91.5162 5.16153C92.1498 4.79891 92.6476 4.50753 93.0097 4.29385C93.2101 4.17729 93.3717 4.08664 93.4816 4.02189C93.5075 4.00246 93.5334 3.99599 93.5528 3.97656L38.8949 30.6026C38.4423 30.8228 38.1061 31.2113 37.9574 31.6775L36.8971 34.8568L24.044 42.4069L19.195 45.2625C18.9688 45.379 18.7425 45.5085 18.5356 45.6445C18.361 45.7416 18.1929 45.8517 18.0313 45.9683C17.9666 46.0071 17.9149 46.0395 17.8567 46.0848C17.7403 46.169 17.624 46.2467 17.5011 46.3374C17.3654 46.4345 17.2296 46.5381 17.1003 46.6547C16.9386 46.7842 16.7835 46.9201 16.6283 47.0626C15.1025 48.4483 14.0422 50.1318 13.5831 51.8737C13.5379 52.0485 13.4991 52.2298 13.4668 52.4111C13.4409 52.5082 13.4215 52.6118 13.415 52.709C13.3956 52.845 13.3762 52.9745 13.3698 53.1104C13.2599 54.2501 13.415 55.3897 13.8741 56.4646C14.1844 57.1704 14.5982 57.805 15.1219 58.3554C15.2512 58.4913 15.387 58.6273 15.5227 58.7568C15.9365 59.1389 16.4085 59.482 16.9257 59.7605C17.2619 59.9483 17.624 60.1166 17.9925 60.2591C18.3739 60.4145 18.7619 60.531 19.1562 60.6217C19.5571 60.7188 19.9579 60.7965 20.3782 60.8483C22.3501 61.0814 24.5289 60.7771 26.6302 59.8706V59.8641ZM25.7897 57.5848C25.2724 57.8114 24.7488 57.9927 24.2251 58.1287C23.8824 58.2194 23.5397 58.2906 23.1971 58.3489C22.8738 58.4007 22.5441 58.4395 22.2208 58.459C22.2014 58.459 22.182 58.4654 22.1691 58.459C20.3588 58.5561 18.7037 58.1222 17.5141 57.2351C17.2942 57.0733 17.1003 56.8984 16.9192 56.7107C16.7317 56.5229 16.5636 56.3092 16.4149 56.0955C16.2727 55.8689 16.1434 55.6358 16.0335 55.3897C14.7404 52.3982 17.0292 48.5325 21.1217 46.7583C21.6389 46.5316 22.1626 46.3503 22.6863 46.2143C23.0031 46.1302 23.3199 46.0719 23.6238 46.0136L23.7854 45.9877C24.0958 45.9424 24.3996 45.9165 24.697 45.8906H24.7488C25.9384 45.8323 27.0439 46.0136 28.0073 46.3892C28.5116 46.5834 28.9835 46.8101 29.3909 47.1144C30.0439 47.6065 30.5546 48.2217 30.8714 48.9598C32.1645 51.9579 29.8887 55.8171 25.7832 57.5913L25.7897 57.5848Z" fill="url(#paint0_linear_259_348)"/>
<path d="M20.7534 45.9028C16.0143 47.949 13.3764 52.4234 14.8764 55.8746C16.3699 59.3324 21.4128 60.4785 26.1648 58.4259C30.9039 56.3668 33.5353 51.9053 32.0418 48.4476C30.5483 44.9898 25.4924 43.8437 20.7534 45.9028ZM30.8845 48.9462C32.1776 51.9377 29.9018 55.8034 25.7963 57.5776C21.6973 59.3518 17.3203 58.3741 16.0272 55.3761C14.7341 52.3845 17.0229 48.5188 21.1154 46.7446C25.2209 44.9704 29.5979 45.9546 30.8845 48.9462Z" fill="url(#paint1_linear_259_348)"/>
<path d="M36.897 34.8564L93.5526 3.9761L93.5979 3.9502L38.8883 30.5957C38.4422 30.8094 38.106 31.1979 37.9508 31.6706L36.897 34.8499V34.8564Z" fill="url(#paint2_linear_259_348)"/>
<path d="M13.4862 55.1816C13.4862 55.1816 12.6651 56.9235 10.719 57.9271C7.47992 59.5977 5.19766 58.879 5.02956 59.397C4.89379 59.8244 6.13513 60.3424 8.85057 60.0057C11.1393 59.7208 14.6306 57.7523 14.6306 57.7523L14.4754 55.1816H13.4862Z" fill="url(#paint3_linear_259_348)"/>
<path d="M173.335 46.3763C172.786 47.2246 160.43 65.1803 114.876 51.958C97.2319 46.8425 71.3965 33.9051 52.1815 29.0875C34.3114 24.6132 14.7732 28.1551 0.00634766 40.4839C0.361941 39.9335 11.909 22.3598 40.4276 22.295C68.5711 22.2432 93.4109 39.6356 124.684 48.034C143.013 52.9616 163.081 53.6674 173.342 46.3763H173.335Z" fill="url(#paint4_linear_259_348)"/>
<path d="M173.335 46.3828C172.786 47.2246 160.43 65.1738 114.876 51.9515C97.2319 46.8361 71.3965 33.8986 52.1815 29.081C34.3114 24.6067 14.7732 28.1486 0.00634766 40.4774C0.484782 39.9529 16.2408 21.654 48.2247 25.3513C79.2389 28.9386 100.471 47.8073 133.199 52.7479C164.167 57.4295 172.902 46.9073 173.348 46.3828H173.335Z" fill="url(#paint5_linear_259_348)"/>
<path d="M93.6048 56.9693C91.8398 55.9398 35.3587 23.0651 33.3545 21.524C30.2834 19.1606 30.833 15.8841 32.2812 13.7991C32.514 13.4559 32.7209 13.0869 32.889 12.6983C34.6799 8.54126 31.8804 3.32871 26.6305 1.05592C21.3871 -1.21688 15.6718 0.311267 13.8809 4.46835C12.1999 8.36643 14.5598 13.1969 19.1954 15.6575C19.6674 15.9359 19.9712 16.4281 20.0165 16.972L20.0424 17.3346C20.0747 17.7684 20.3204 18.1634 20.6954 18.3836L20.7794 18.4289C21.0833 18.6102 21.4453 18.662 21.788 18.5778L22.7966 18.3253C23.2233 18.2152 23.6694 18.28 24.0509 18.5066L36.9039 26.0632L37.9578 29.2425C38.1129 29.7152 38.4491 30.1037 38.8952 30.3174L93.6048 56.9693ZM21.1156 14.1747C17.0166 12.4005 14.7343 8.53478 16.0274 5.53676C17.3205 2.54521 21.691 1.55451 25.7965 3.33519C29.8955 5.11587 32.1778 8.9751 30.8847 11.9731C29.5916 14.9647 25.2211 15.9554 21.1156 14.1747Z" fill="url(#paint6_linear_259_348)"/>
<path d="M32.0418 12.4655C33.5353 9.0077 30.9039 4.5398 26.1648 2.48716C21.4193 0.440996 16.3699 1.58063 14.8764 5.03839C13.3764 8.48968 16.0143 12.964 20.7534 15.0102C25.4924 17.0693 30.5483 15.9232 32.0418 12.4655ZM21.1154 14.1684C17.0164 12.3942 14.7341 8.52853 16.0272 5.53698C17.3203 2.53896 21.6973 1.56121 25.7963 3.33541C29.9018 5.10962 32.1776 8.97532 30.8845 11.9669C29.5979 14.9584 25.2209 15.9426 21.1154 14.1684Z" fill="url(#paint7_linear_259_348)"/>
<path d="M43.822 31.5996C44.4491 31.5996 44.9599 31.088 44.9599 30.46C44.9599 29.8319 44.4491 29.3203 43.822 29.3203C43.1948 29.3203 42.6841 29.8319 42.6841 30.46C42.6841 31.088 43.1948 31.5996 43.822 31.5996Z" fill="url(#paint8_linear_259_348)"/>
<path d="M43.8219 31.2173C44.2421 31.2173 44.5783 30.8806 44.5783 30.4597C44.5783 30.0389 44.2357 29.7021 43.8219 29.7021C43.4081 29.7021 43.0654 30.0389 43.0654 30.4597C43.0654 30.8806 43.4016 31.2173 43.8219 31.2173Z" fill="url(#paint9_linear_259_348)"/>
<path d="M65.8555 23.7646C65.8555 23.7646 78.2883 27.6109 92.0788 33.1602C105.869 38.7094 139.205 53.3628 160.618 48.1438C169.352 46.0135 173.626 41.6945 175.184 37.4662C177.725 30.5636 173.354 26.2576 173.354 26.2576C173.354 26.2576 178.287 34.1444 168.57 41.6945C162.014 46.784 146.077 46.7905 128.142 42.3355C110.402 37.9324 84.0618 24.8784 65.8619 23.7711L65.8555 23.7646Z" fill="url(#paint10_linear_259_348)"/>
<defs>
<linearGradient id="paint0_linear_259_348" x1="96.1841" y1="12.0511" x2="6.60013" y2="58.8064" gradientUnits="userSpaceOnUse">
<stop stop-color="#FCE95F"/>
<stop offset="0.49" stop-color="#FFEE95"/>
<stop offset="0.77" stop-color="#A14400"/>
<stop offset="1" stop-color="#FFA506"/>
</linearGradient>
<linearGradient id="paint1_linear_259_348" x1="23.4559" y1="59.449" x2="23.4559" y2="44.8797" gradientUnits="userSpaceOnUse">
<stop stop-color="#AA540E"/>
<stop offset="0.62" stop-color="#FFEE95"/>
<stop offset="1" stop-color="#FCE95F"/>
</linearGradient>
<linearGradient id="paint2_linear_259_348" x1="65.241" y1="3.9502" x2="65.241" y2="34.8564" gradientUnits="userSpaceOnUse">
<stop stop-color="#FCE95F"/>
<stop offset="0.49" stop-color="#FFEE95"/>
<stop offset="0.77" stop-color="#A14400"/>
<stop offset="1" stop-color="#FFA506"/>
</linearGradient>
<linearGradient id="paint3_linear_259_348" x1="96.7143" y1="13.0604" x2="7.1239" y2="59.8156" gradientUnits="userSpaceOnUse">
<stop stop-color="#FCE95F"/>
<stop offset="0.49" stop-color="#FFEE95"/>
<stop offset="0.77" stop-color="#A14400"/>
<stop offset="1" stop-color="#FFA506"/>
</linearGradient>
<linearGradient id="paint4_linear_259_348" x1="24.3354" y1="-13.8237" x2="134.911" y2="87.4228" gradientUnits="userSpaceOnUse">
<stop stop-color="#FFA506"/>
<stop offset="0.51" stop-color="#FFEE95"/>
<stop offset="1" stop-color="#FCE95F"/>
</linearGradient>
<linearGradient id="paint5_linear_259_348" x1="24.5487" y1="-13.623" x2="134.91" y2="87.4295" gradientUnits="userSpaceOnUse">
<stop stop-color="#FFA506"/>
<stop offset="0.38" stop-color="#A14400"/>
<stop offset="1" stop-color="#FCE95F"/>
</linearGradient>
<linearGradient id="paint6_linear_259_348" x1="53.4681" y1="0.000456879" x2="53.4681" y2="56.9758" gradientUnits="userSpaceOnUse">
<stop stop-color="#FCE95F"/>
<stop offset="0.49" stop-color="#FFEE95"/>
<stop offset="0.77" stop-color="#A14400"/>
<stop offset="1" stop-color="#FFA506"/>
</linearGradient>
<linearGradient id="paint7_linear_259_348" x1="23.4559" y1="1.47055" x2="23.4559" y2="16.0398" gradientUnits="userSpaceOnUse">
<stop stop-color="#FCE95F"/>
<stop offset="0.53" stop-color="#FFEE95"/>
<stop offset="1" stop-color="#FFA506"/>
</linearGradient>
<linearGradient id="paint8_linear_259_348" x1="42.8845" y1="29.521" x2="44.6911" y2="31.3249" gradientUnits="userSpaceOnUse">
<stop stop-color="#FCE95F"/>
<stop offset="0.49" stop-color="#FFEE95"/>
<stop offset="0.77" stop-color="#A14400"/>
<stop offset="1" stop-color="#FFA506"/>
</linearGradient>
<linearGradient id="paint9_linear_259_348" x1="43.2012" y1="29.8381" x2="44.3991" y2="31.0342" gradientUnits="userSpaceOnUse">
<stop stop-color="#A14400"/>
<stop offset="1" stop-color="#FFEE95"/>
</linearGradient>
<linearGradient id="paint10_linear_259_348" x1="80.4477" y1="-10.9489" x2="156.431" y2="58.6281" gradientUnits="userSpaceOnUse">
<stop stop-color="#FFA506"/>
<stop offset="0.23" stop-color="#A14400"/>
<stop offset="0.51" stop-color="#FFEE95"/>
<stop offset="1" stop-color="#FCE95F"/>
</linearGradient>
</defs>
</svg>
