<svg width="56" height="56" viewBox="0 0 56 56" fill="none" xmlns="http://www.w3.org/2000/svg">
<path d="M0 28C0 43.464 12.536 56 28 56C43.464 56 56 43.464 56 28C56 12.536 43.464 0 28 0C12.536 0 0 12.536 0 28Z" fill="#0088CC"/>
<path d="M14.1749 27.4895C21.691 24.2148 26.703 22.056 29.2107 21.0129C36.3709 18.0348 37.8587 17.5174 38.8284 17.5002C39.0417 17.4966 39.5186 17.5494 39.8275 17.8001C40.0883 18.0118 40.1601 18.2977 40.1944 18.4983C40.2288 18.699 40.2715 19.1561 40.2376 19.5133C39.8495 23.5902 38.1706 33.4836 37.3165 38.0498C36.9551 39.9819 36.2434 40.6297 35.5545 40.6931C34.0572 40.8309 32.9203 39.7036 31.4701 38.753C29.2009 37.2655 27.919 36.3395 25.7163 34.888C23.1707 33.2105 24.8209 32.2885 26.2716 30.7818C26.6513 30.3875 33.2482 24.3871 33.3759 23.8427C33.3918 23.7746 33.4067 23.5209 33.2559 23.3869C33.1052 23.2529 32.8827 23.2987 32.7221 23.3352C32.4945 23.3868 28.8694 25.7829 21.8468 30.5233C20.8178 31.2299 19.8858 31.5742 19.0508 31.5561C18.1302 31.5362 16.3594 31.0356 15.043 30.6077C13.4283 30.0828 12.145 29.8053 12.2568 28.914C12.315 28.4497 12.9543 27.9749 14.1749 27.4895Z" fill="#151515"/>
</svg>
