<svg width="56" height="56" viewBox="0 0 56 56" fill="none" xmlns="http://www.w3.org/2000/svg">
<rect width="56" height="56" rx="28" fill="#25D366"/>
<path d="M39.0976 16.8871C36.3317 14.1309 32.6439 12.5996 28.7512 12.5996C20.6585 12.5996 14.1024 19.1329 14.1024 27.1975C14.1024 29.7496 14.8195 32.3017 16.0488 34.4454L14 41.9996L21.7854 39.9579C23.9366 41.0809 26.2927 41.6934 28.7512 41.6934C36.8439 41.6934 43.4 35.16 43.4 27.0954C43.2976 23.3184 41.8634 19.6434 39.0976 16.8871ZM35.8195 32.4038C35.5122 33.2204 34.078 34.0371 33.361 34.1392C32.7463 34.2413 31.9268 34.2413 31.1073 34.0371C30.5951 33.8329 29.878 33.6288 29.0585 33.2204C25.3707 31.6892 23.0146 28.0142 22.8098 27.7079C22.6049 27.5038 21.2732 25.7684 21.2732 23.9309C21.2732 22.0934 22.1951 21.2767 22.5024 20.8684C22.8098 20.46 23.2195 20.46 23.5268 20.46C23.7317 20.46 24.039 20.46 24.2439 20.46C24.4488 20.46 24.7561 20.3579 25.0634 21.0725C25.3707 21.7871 26.0878 23.6246 26.1902 23.7267C26.2927 23.9309 26.2927 24.135 26.1902 24.3392C26.0878 24.5434 25.9854 24.7475 25.7805 24.9517C25.5756 25.1559 25.3707 25.4621 25.2683 25.5642C25.0634 25.7684 24.8585 25.9725 25.0634 26.2788C25.2683 26.6871 25.9854 27.81 27.1122 28.8309C28.5463 30.0559 29.6732 30.4642 30.0829 30.6684C30.4927 30.8725 30.6976 30.7704 30.9024 30.5663C31.1073 30.3621 31.8244 29.5454 32.0293 29.1371C32.2341 28.7288 32.5415 28.8309 32.8488 28.9329C33.1561 29.035 35 29.9538 35.3073 30.1579C35.7171 30.3621 35.9219 30.4642 36.0244 30.5663C36.1268 30.8725 36.1268 31.5871 35.8195 32.4038Z" fill="#151515"/>
</svg>
